<?xml version="1.0" encoding="utf-8"?>
<!-- Generator: Adobe Illustrator 25.0.0, SVG Export Plug-In . SVG Version: 6.00 Build 0)  -->
<svg version="1.1" id="Layer_1" xmlns="http://www.w3.org/2000/svg" xmlns:xlink="http://www.w3.org/1999/xlink" x="0px" y="0px"
	 viewBox="0 0 512 275" style="enable-background:new 0 0 512 275;" xml:space="preserve">
<style type="text/css">
	.st0{fill:#F5BD1F;}
	.st1{fill:#2F2E41;}
	.st2{fill:#F1F1F1;}
	.st3{fill:#FFFFFF;}
	.st4{fill:#E5E5E5;}
	.st5{fill:#E6E6E6;}
	.st6{fill:#CBCBCB;}
	.st7{fill:#3F3D56;}
</style>
<g>
	<path class="st0" d="M163.43,161.93c-0.47,0.22-0.98,0.34-1.49,0.35l-47.95,1.32c-4.16,0.09-7.6-3.21-7.69-7.36
		c-0.09-4.16,3.21-7.6,7.36-7.69l47.95-1.32c2.02-0.04,3.7,1.56,3.74,3.58l0.17,7.72C165.56,159.99,164.74,161.31,163.43,161.93z"/>
	<path class="st0" d="M101.9,263h-7.73c-2.02,0-3.66-1.64-3.66-3.66v-64.39c0-2.02,1.64-3.66,3.66-3.66h7.73
		c2.02,0,3.66,1.64,3.66,3.66v64.39C105.57,261.36,103.93,263,101.9,263z"/>
	<path class="st0" d="M122.42,263h-7.73c-2.02,0-3.66-1.64-3.66-3.66v-64.39c0-2.02,1.64-3.66,3.66-3.66h7.73
		c2.02,0,3.66,1.64,3.66,3.66v64.39C126.08,261.36,124.44,263,122.42,263z"/>
	<circle class="st0" cx="109.05" cy="97.64" r="26.7"/>
	<path class="st1" d="M118.12,214.11H98.91c-12.51,0.05-22.69-10.06-22.74-22.57c-0.02-4.03,1.05-8,3.08-11.49l26.86-46.52
		c0.94-1.63,3.02-2.18,4.65-1.25c0.52,0.3,0.95,0.73,1.25,1.25l26.32,45.58c6.44,11.16,2.62,25.42-8.54,31.87
		C126.23,213.03,122.21,214.11,118.12,214.11z"/>
	<rect x="124.65" y="92.06" class="st1" width="5.64" height="1.05"/>
	<rect x="106.85" y="92.06" class="st1" width="5.64" height="1.05"/>
	<path class="st0" d="M102.77,208.14c-0.22-0.47-0.34-0.98-0.35-1.49l-1.32-47.95c-0.09-4.16,3.21-7.6,7.36-7.69
		c4.16-0.09,7.6,3.21,7.69,7.36l1.32,47.95c0.04,2.02-1.56,3.7-3.58,3.74l-7.72,0.17C104.72,210.26,103.4,209.44,102.77,208.14
		L102.77,208.14z"/>
	
		<rect id="fc777aff-63b1-4720-84dc-e3a9c20790b9" x="156.8" y="24.01" transform="matrix(0.9897 -0.143 0.143 0.9897 -8.4088 39.5833)" class="st2" width="228.85" height="108.6"/>
	
		<rect id="ecffa418-b240-4504-be04-512edea7ccda" x="163.39" y="33.31" transform="matrix(0.9897 -0.143 0.143 0.9897 -8.4532 39.593)" class="st3" width="215.77" height="90.6"/>
	
		<rect id="b49ce3f1-9d75-4481-986b-3b6beb000c79" x="148.74" y="18.32" transform="matrix(0.9897 -0.143 0.143 0.9897 -0.6103 37.8644)" class="st4" width="228.85" height="9.72"/>
	<circle id="a4219562-805a-49cd-8b89-b1f92f7a9e75" class="st3" cx="157.19" cy="39.35" r="1.8"/>
	<circle id="b0f6399c-6944-4f74-a888-473f61f9730c" class="st3" cx="163.96" cy="38.38" r="1.8"/>
	<circle id="b03f93dc-2c99-4323-9b17-02f51b8830c0" class="st3" cx="170.73" cy="37.4" r="1.8"/>
	<rect id="a6067cfc-0392-4d68-afe4-e34d11a8f0ac" x="199.9" y="54.45" class="st5" width="228.85" height="108.6"/>
	<rect id="ecd65817-7467-4dbd-a435-c0f1d9841c98" x="206.44" y="63.76" class="st3" width="215.77" height="90.6"/>
	<rect id="eea6c39d-8a45-4eb1-bab9-6120f465de14" x="199.8" y="48.18" class="st6" width="228.85" height="9.72"/>
	<circle id="ab9e51f9-7431-4d30-8193-f9435a6bd5c3" class="st3" cx="207.02" cy="53.89" r="1.8"/>
	<circle id="a54ed687-3b0d-413b-b405-af8897a5c032" class="st3" cx="213.86" cy="53.89" r="1.8"/>
	<circle id="fd1d2195-7e97-488f-8f4b-7061a06deb9a" class="st3" cx="220.7" cy="53.89" r="1.8"/>
	<rect x="330.77" y="77.54" class="st5" width="30.39" height="2.28"/>
	<rect x="330.77" y="84.24" class="st5" width="46.93" height="2.28"/>
	<rect x="331.26" y="90.63" class="st5" width="38.24" height="2.28"/>
	<rect x="330.77" y="97.63" class="st5" width="22.33" height="2.28"/>
	<rect x="330.77" y="104.48" class="st5" width="33.7" height="2.28"/>
	<rect x="316.92" y="76.82" class="st5" width="3.72" height="3.72"/>
	<rect x="316.92" y="83.52" class="st5" width="3.72" height="3.72"/>
	<rect x="316.92" y="89.91" class="st5" width="3.72" height="3.72"/>
	<rect x="316.92" y="96.92" class="st5" width="3.72" height="3.72"/>
	<rect x="316.92" y="103.76" class="st5" width="3.72" height="3.72"/>
	<rect x="330.77" y="111.37" class="st5" width="30.39" height="2.28"/>
	<rect x="330.77" y="118.07" class="st5" width="46.93" height="2.28"/>
	<rect x="331.26" y="124.46" class="st5" width="38.24" height="2.28"/>
	<rect x="330.77" y="131.46" class="st5" width="22.33" height="2.28"/>
	<rect x="330.77" y="138.31" class="st5" width="33.7" height="2.28"/>
	<rect x="316.92" y="110.65" class="st5" width="3.72" height="3.72"/>
	<rect x="316.92" y="117.35" class="st5" width="3.72" height="3.72"/>
	<rect x="316.92" y="123.74" class="st5" width="3.72" height="3.72"/>
	<rect x="316.92" y="130.74" class="st5" width="3.72" height="3.72"/>
	<rect x="316.92" y="137.59" class="st5" width="3.72" height="3.72"/>
	<rect x="234.64" y="129.28" class="st5" width="30.39" height="2.28"/>
	<rect x="230.57" y="135.22" class="st5" width="38.24" height="2.28"/>
	<path class="st5" d="M269.58,100.47c0,10.96-8.89,19.85-19.86,19.84c-3.28,0-6.51-0.81-9.39-2.37l0,0
		c-9.65-5.2-13.26-17.23-8.06-26.88c5.2-9.65,17.23-13.26,26.88-8.06C265.58,86.46,269.58,93.17,269.58,100.47z"/>
	<circle class="st3" cx="249.84" cy="94.11" r="5.39"/>
	<path class="st3" d="M259.05,110.65c-6.03,2.12-12.6,2.09-18.62-0.07l0,0l4.02-7.93h10.79L259.05,110.65z"/>
	<path class="st0" d="M190.12,149.72c-9.4,0-17.05-8.12-17.05-18.11c0-9.99,7.65-18.11,17.05-18.11c9.4,0,17.05,8.12,17.05,18.11
		C207.17,141.6,199.53,149.72,190.12,149.72z M190.12,118.07c-6.88,0-12.47,6.07-12.47,13.54c0,7.46,5.6,13.54,12.47,13.54
		c6.88,0,12.47-6.07,12.47-13.54C202.6,124.14,197,118.07,190.12,118.07z"/>
	<path class="st7" d="M206.27,181.28h-32.29c-5.93-0.01-10.73-4.81-10.74-10.74v-31.67c0-4.06,3.29-7.35,7.35-7.35h39.07
		c4.06,0,7.35,3.29,7.35,7.35v31.67C217,176.47,212.2,181.28,206.27,181.28z"/>
	<path class="st3" d="M196.42,149.54c0-3.48-2.81-6.29-6.29-6.3c-3.48,0-6.29,2.81-6.3,6.29c0,2.37,1.32,4.53,3.43,5.61v9.85h5.72
		v-9.85C195.09,154.06,196.42,151.9,196.42,149.54z"/>
</g>
</svg>
