<?xml version="1.0" encoding="utf-8"?>
<!-- Generator: Adobe Illustrator 25.0.0, SVG Export Plug-In . SVG Version: 6.00 Build 0)  -->
<svg version="1.1" id="Layer_1" xmlns="http://www.w3.org/2000/svg" xmlns:xlink="http://www.w3.org/1999/xlink" x="0px" y="0px"
	 viewBox="0 0 512 512" style="enable-background:new 0 0 512 512;" xml:space="preserve">
<style type="text/css">
	.st0{fill:#F2F2F2;}
	.st1{fill:#FFFFFF;}
	.st2{fill:#CCCCCC;}
	.st3{fill:#F5BD1F;}
	.st4{fill:#E6E6E6;}
	.st5{fill:#3F3D56;}
</style>
<g id="Group_201" transform="translate(-382.003 -195.455)">
	<g id="Group_200" transform="translate(382.003 195.455)">
		<path id="Path_3120-3287" class="st0" d="M265.34,353.58L88.06,399.23c-12.52,3.21-25.28-4.32-28.51-16.84L5.94,174.2
			c-3.21-12.52,4.32-25.28,16.84-28.51l164.93-42.47l42.21,18.9l52.26,202.95C285.38,337.59,277.85,350.34,265.34,353.58z"/>
		<path id="Path_3121-3288" class="st1" d="M24.45,152.21c-8.91,2.31-14.27,11.39-11.99,20.31l53.61,208.2
			c2.31,8.91,11.39,14.27,20.31,11.99l177.28-45.65c8.91-2.31,14.27-11.39,11.99-20.31l-51.45-199.81l-37.1-16.61L24.45,152.21z"/>
		<path id="Path_3122-3289" class="st0" d="M229.46,123.19l-27.44,7.07c-4.17,1.07-8.42-1.44-9.5-5.61l-5.22-20.26
			c-0.07-0.26,0.09-0.53,0.35-0.59c0.11-0.03,0.22-0.02,0.32,0.03l41.56,18.46c0.25,0.11,0.36,0.4,0.25,0.64
			C229.73,123.05,229.61,123.15,229.46,123.19L229.46,123.19z"/>
		<path id="Path_3123-3290" class="st2" d="M215.03,300.98l-80.71,20.79c-2.09,0.53-4.21-0.74-4.73-2.83
			c-0.52-2.07,0.72-4.18,2.79-4.72l80.71-20.79c2.08-0.55,4.22,0.69,4.76,2.78s-0.69,4.22-2.78,4.76
			C215.06,300.97,215.04,300.98,215.03,300.98z"/>
		<path id="Path_3124-3291" class="st2" d="M233.89,309.72l-96.29,24.8c-2.08,0.55-4.22-0.69-4.76-2.78s0.69-4.22,2.78-4.76
			c0.01,0,0.03-0.01,0.04-0.01l96.29-24.8c2.09-0.53,4.21,0.74,4.73,2.83C237.19,307.07,235.95,309.17,233.89,309.72L233.89,309.72z
			"/>
		<circle id="Ellipse_44" class="st3" cx="101.38" cy="333.02" r="13.78"/>
		<path id="Path_3125-3292" class="st1" d="M206.45,264.92L99.25,292.51c-6.45,1.65-13.02-2.23-14.69-8.67L62.1,196.57
			c-1.65-6.45,2.23-13.02,8.67-14.69l107.19-27.59c6.45-1.65,13.02,2.23,14.69,8.67l22.46,87.27
			C216.77,256.68,212.89,263.25,206.45,264.92z"/>
		<path id="Path_3126-3293" class="st4" d="M206.45,264.92L99.25,292.51c-6.45,1.65-13.02-2.23-14.69-8.67L62.1,196.57
			c-1.65-6.45,2.23-13.02,8.67-14.69l107.19-27.59c6.45-1.65,13.02,2.23,14.69,8.67l22.46,87.27
			C216.77,256.68,212.89,263.25,206.45,264.92z M71.13,183.25c-5.69,1.47-9.11,7.27-7.65,12.96l22.46,87.27
			c1.47,5.69,7.27,9.11,12.96,7.65l107.19-27.59c5.69-1.47,9.11-7.27,7.65-12.96l-22.46-87.27c-1.47-5.69-7.27-9.11-12.96-7.65
			L71.13,183.25z"/>
		<path id="Path_411-3294" class="st0" d="M172.53,183.63l-54.1,13.93c-0.98,0.27-2.01-0.26-2.35-1.22
			c-0.31-0.98,0.24-2.03,1.22-2.34c0.03-0.01,0.06-0.02,0.1-0.03l55.07-14.18C174.69,180.92,174.11,183.22,172.53,183.63
			L172.53,183.63z"/>
		<path id="Path_412-3295" class="st0" d="M174.97,193.12l-54.1,13.93c-0.98,0.27-2.01-0.26-2.35-1.22
			c-0.31-0.98,0.24-2.03,1.22-2.34c0.03-0.01,0.06-0.02,0.1-0.03l55.07-14.18C177.13,190.41,176.55,192.71,174.97,193.12
			L174.97,193.12z"/>
		<path id="Path_413-3296" class="st3" d="M110.57,215.46l-16.51,4.25c-1.12,0.29-2.27-0.39-2.56-1.51c0,0,0,0,0,0l-5.02-19.48
			c-0.29-1.12,0.39-2.27,1.51-2.56c0,0,0,0,0,0l16.51-4.25c1.12-0.29,2.27,0.39,2.56,1.51l5.02,19.48
			C112.37,214.03,111.69,215.17,110.57,215.46C110.57,215.46,110.57,215.46,110.57,215.46L110.57,215.46z"/>
		<path id="Path_414-3297" class="st0" d="M179.82,212.59l-82.56,21.25c-0.98,0.27-2.01-0.26-2.35-1.22
			c-0.31-0.98,0.24-2.03,1.22-2.34c0.03-0.01,0.06-0.02,0.1-0.03l83.54-21.5C181.98,209.88,181.4,212.18,179.82,212.59
			L179.82,212.59z"/>
		<path id="Path_415-3298" class="st0" d="M182.26,222.08L99.7,243.33c-0.98,0.27-2.01-0.26-2.35-1.22
			c-0.31-0.98,0.24-2.03,1.22-2.34c0.03-0.01,0.06-0.02,0.1-0.03l83.54-21.5C184.42,219.37,183.84,221.67,182.26,222.08
			L182.26,222.08z"/>
		<path id="Path_416-3299" class="st0" d="M184.7,231.57l-82.56,21.25c-0.98,0.27-2.01-0.26-2.35-1.22
			c-0.31-0.98,0.24-2.03,1.22-2.34c0.03-0.01,0.06-0.02,0.1-0.03l83.54-21.5C186.87,228.86,186.28,231.16,184.7,231.57L184.7,231.57
			z"/>
		<path id="Path_417-3300" class="st0" d="M187.15,241.06l-82.57,21.25c-0.98,0.27-2.01-0.26-2.35-1.22
			c-0.31-0.98,0.24-2.03,1.22-2.34c0.03-0.01,0.06-0.02,0.1-0.03l83.54-21.5C189.31,238.35,188.72,240.65,187.15,241.06z"/>
		<path id="Path_418-3301" class="st0" d="M189.59,250.54l-82.56,21.25c-0.98,0.27-2.01-0.26-2.35-1.22
			c-0.31-0.98,0.24-2.03,1.22-2.34c0.03-0.01,0.06-0.02,0.1-0.03l83.54-21.5C191.75,247.83,191.17,250.14,189.59,250.54z"/>
		<path id="Path_395-3302" class="st1" d="M102.39,337.85c-0.3,0.08-0.62,0.06-0.9-0.06l-0.02-0.01l-3.75-1.59
			c-0.73-0.31-1.07-1.16-0.76-1.89c0.31-0.73,1.16-1.07,1.89-0.76l0,0l2.43,1.03l3.19-7.5c0.31-0.73,1.16-1.07,1.89-0.76l0,0
			l-0.02,0.05l0.02-0.05c0.73,0.31,1.07,1.16,0.76,1.89l-3.75,8.82C103.19,337.43,102.83,337.73,102.39,337.85L102.39,337.85z"/>
	</g>
	<g id="Group_199" transform="translate(673.007 225.872) rotate(-8)">
		<g id="Group_198" transform="translate(125.896 0) rotate(19)">
			<path id="Path_3127-3303" class="st4" d="M98.7,383.67l-183.06,0c-12.93-0.01-23.4-10.49-23.41-23.42l0-214.99
				c0.01-12.93,10.49-23.4,23.41-23.41l170.31,0l36.17,28.83l0,209.58C122.11,373.18,111.63,383.66,98.7,383.67z"/>
			<path id="Path_3128-3304" class="st1" d="M-84.35,128.59c-9.2,0.01-16.66,7.47-16.67,16.67l0,214.99
				c0.01,9.2,7.47,16.66,16.67,16.67l183.06,0c9.2-0.01,16.66-7.47,16.67-16.67l0-206.33L83.6,128.59L-84.35,128.59z"/>
			<path id="Path_3129-3305" class="st3" d="M63.1,191.11l-83.34,0c-2.15,0-3.9-1.75-3.9-3.9c0-2.15,1.75-3.9,3.9-3.9l83.35,0
				c2.15,0,3.9,1.75,3.9,3.9C67,189.36,65.25,191.11,63.1,191.11L63.1,191.11z"/>
			<path id="Path_3130-3306" class="st3" d="M79.18,204.27l-99.43,0c-2.15,0-3.9-1.75-3.9-3.9c0-2.15,1.75-3.9,3.9-3.9l99.43,0
				c2.15,0,3.9,1.74,3.9,3.9C83.08,202.52,81.34,204.27,79.18,204.27C79.19,204.27,79.18,204.27,79.18,204.27z"/>
			<path id="Path_3131-3307" class="st2" d="M63.1,242.28l-83.34,0c-2.15,0-3.9,1.75-3.9,3.9c0,2.15,1.75,3.9,3.9,3.9l83.34,0
				c2.15-0.03,3.88-1.8,3.85-3.95C66.92,244.02,65.21,242.31,63.1,242.28z"/>
			<path id="Path_3132-3308" class="st2" d="M79.19,255.44l-99.43,0c-2.15-0.03-3.92,1.69-3.95,3.85c-0.03,2.15,1.69,3.92,3.85,3.95
				c0.03,0,0.07,0,0.1,0l99.43,0c2.15,0.03,3.92-1.69,3.95-3.85c0.03-2.15-1.69-3.92-3.85-3.95
				C79.25,255.44,79.22,255.44,79.19,255.44L79.19,255.44z"/>
			<path id="Path_3133-3309" class="st2" d="M63.1,309.06h-83.34c-2.15,0-3.9-1.75-3.9-3.9c0-2.15,1.75-3.9,3.9-3.9H63.1
				c2.15,0,3.9,1.75,3.9,3.9C67,307.31,65.25,309.06,63.1,309.06L63.1,309.06z"/>
			<path id="Path_3134-3310" class="st2" d="M79.18,322.22h-99.43c-2.15,0-3.9-1.75-3.9-3.9c0-2.15,1.75-3.9,3.9-3.9l99.43,0
				c2.15,0,3.9,1.74,3.9,3.9C83.08,320.47,81.34,322.22,79.18,322.22C79.19,322.22,79.18,322.22,79.18,322.22z"/>
			<circle id="Ellipse_44-2" class="st3" cx="-54.95" cy="193.79" r="13.78"/>
			<path id="Path_395-2-3311" class="st1" d="M-56.32,199.04c-0.31,0-0.61-0.1-0.86-0.29l-0.02-0.01l-3.24-2.48
				c-0.62-0.49-0.73-1.4-0.24-2.02c0.48-0.61,1.37-0.73,1.99-0.26l2.1,1.61l4.96-6.47c0.48-0.63,1.39-0.75,2.02-0.27c0,0,0,0,0,0
				l0,0l-0.03,0.04l0.03-0.04c0.63,0.48,0.75,1.39,0.27,2.02l-5.83,7.6C-55.45,198.84-55.87,199.04-56.32,199.04L-56.32,199.04z"/>
			<path id="Path_3135-3312" class="st3" d="M-39.75,252.76c0,7.61-6.16,13.78-13.78,13.79c0,0,0,0,0,0c-0.12,0-0.24,0-0.35-0.01
				c-7.61-0.2-13.62-6.52-13.42-14.13c0.2-7.61,6.52-13.62,14.13-13.42C-45.71,239.17-39.75,245.29-39.75,252.76z"/>
			<circle id="Ellipse_44-3" class="st3" cx="-54.95" cy="311.74" r="13.78"/>
			<path id="Path_3136-3313" class="st2" d="M121.42,151.61H93.08c-4.31,0-7.8-3.49-7.8-7.8c0,0,0,0,0,0l0-20.92
				c0-0.27,0.22-0.49,0.49-0.49c0.11,0,0.22,0.04,0.3,0.11l35.64,28.23c0.21,0.17,0.25,0.47,0.08,0.68
				C121.7,151.54,121.56,151.61,121.42,151.61L121.42,151.61z"/>
		</g>
	</g>
	<path id="Path_3140-3314" class="st5" d="M723.09,585.71c-1.78,2.92-5.6,3.85-8.52,2.07l-72.35-44.13
		c-2.92-1.78-3.85-5.6-2.06-8.52s5.6-3.85,8.52-2.06l0,0l72.35,44.13C723.95,578.97,724.87,582.79,723.09,585.71L723.09,585.71z"/>
	<path id="Path_3141-3315" class="st5" d="M650.74,541.59c-14.27,23.39-44.79,30.78-68.18,16.52
		c-23.39-14.27-30.78-44.79-16.52-68.18c14.27-23.39,44.79-30.78,68.18-16.52C657.61,487.67,665.01,518.2,650.74,541.59
		C650.74,541.59,650.74,541.59,650.74,541.59z M576.63,496.38c-10.7,17.54-5.15,40.44,12.39,51.13
		c17.54,10.7,40.44,5.15,51.13-12.39s5.15-40.44-12.39-51.13c0,0,0,0,0,0C610.22,473.29,587.33,478.84,576.63,496.38z"/>
	<circle id="Ellipse_44-4" class="st3" cx="607.84" cy="515.24" r="38.6"/>
</g>
</svg>
