<?xml version="1.0" encoding="utf-8"?>
<!-- Generator: Adobe Illustrator 25.0.0, SVG Export Plug-In . SVG Version: 6.00 Build 0)  -->
<svg version="1.1" id="Layer_1" xmlns="http://www.w3.org/2000/svg" xmlns:xlink="http://www.w3.org/1999/xlink" x="0px" y="0px"
	 viewBox="0 0 512 275" style="enable-background:new 0 0 512 275;" xml:space="preserve">
<style type="text/css">
	.st0{fill:#090814;}
	.st1{fill:#FFFFFF;}
	.st2{fill:#CCCCCC;}
	.st3{fill:#2F2E41;}
	.st4{fill:#F5BD1F;}
	.st5{fill:#E6E6E6;}
	.st6{fill:#ED9DA0;}
	.st7{opacity:0.3;fill:#FFFFFF;enable-background:new    ;}
	.st8{opacity:0.1;enable-background:new    ;}
</style>
<g transform="translate(-285.293 -249.125)">
	<g transform="translate(285.293 249.125)">
		<g transform="translate(0 0)">
			<path class="st0" d="M394.52,254.61H43.87V25.24c0.01-7.08,5.75-12.82,12.83-12.83h324.99c7.08,0.01,12.82,5.75,12.83,12.83
				V254.61z"/>
			<rect x="53.52" y="28.05" class="st1" width="330.02" height="207.6"/>
			<path class="st2" d="M408.86,262.59H30.9l-24.19-4.6c-2.37-0.45-4.08-2.52-4.09-4.94v-5.1h431.83v5.18
				c-0.01,2.37-1.67,4.42-3.99,4.92L408.86,262.59L408.86,262.59z"/>
			<path class="st3" d="M248.51,254.6h-59.96c-3.1,0-5.61-2.51-5.61-5.61v-1.04h71.19v1.04c0,3.1-2.51,5.61-5.61,5.61L248.51,254.6z
				"/>
		</g>
		<g transform="translate(99.951 64.943)">
			<path class="st2" d="M50.09,57.24h-78.36c-2.58,0-4.67-2.09-4.67-4.67V-6.02c0-2.58,2.09-4.67,4.67-4.67h78.36
				c2.58,0,4.67,2.09,4.67,4.67v58.59C54.76,55.15,52.67,57.24,50.09,57.24L50.09,57.24z"/>
			<path class="st1" d="M-28.27-8.24c-1.22,0-2.21,0.99-2.21,2.21v58.59c0,1.22,0.99,2.21,2.21,2.21h78.36
				c1.22,0,2.21-0.99,2.21-2.21V-6.02c0-1.22-0.99-2.21-2.21-2.21H-28.27z"/>
			<path class="st4" d="M-24.79-3.86H6.6c0.69,0,1.24,0.56,1.24,1.24c0,0,0,0,0,0v15.23c0,0.69-0.56,1.24-1.24,1.24l0,0h-31.38
				c-0.69,0-1.24-0.56-1.24-1.24c0,0,0,0,0,0V-2.62C-26.03-3.3-25.47-3.86-24.79-3.86C-24.79-3.86-24.79-3.86-24.79-3.86z"/>
			<path class="st5" d="M12.19-3.86h34.49c0.69,0,1.24,0.55,1.25,1.24c0,0,0,0,0,0v2.18c0,0.69-0.56,1.24-1.24,1.24l0,0H12.19
				c-0.69,0-1.24-0.56-1.24-1.24v-2.18C10.95-3.3,11.5-3.86,12.19-3.86C12.19-3.86,12.19-3.86,12.19-3.86z"/>
			<path class="st5" d="M12.19,2.66h11.86c0.69,0,1.24,0.56,1.24,1.24c0,0,0,0,0,0v2.18c0,0.69-0.56,1.24-1.24,1.24c0,0,0,0,0,0
				H12.19c-0.69,0-1.24-0.56-1.24-1.24V3.91C10.95,3.22,11.5,2.66,12.19,2.66C12.19,2.66,12.19,2.66,12.19,2.66z"/>
			<path class="st5" d="M12.19,9.19h34.49c0.69,0,1.24,0.55,1.25,1.24c0,0,0,0,0,0v2.18c0,0.69-0.56,1.24-1.24,1.24l0,0H12.19
				c-0.69,0-1.24-0.56-1.24-1.24v-2.18C10.95,9.75,11.5,9.19,12.19,9.19C12.19,9.19,12.19,9.19,12.19,9.19z"/>
			<path class="st5" d="M-24.79,19.44h71.46c0.69,0,1.24,0.56,1.24,1.24c0,0,0,0,0,0v2.18c0,0.69-0.56,1.24-1.24,1.24l0,0h-71.46
				c-0.69,0-1.24-0.56-1.24-1.24v-2.18C-26.03,20-25.47,19.44-24.79,19.44C-24.79,19.44-24.79,19.44-24.79,19.44z"/>
			<path class="st5" d="M-24.79,25.97h71.46c0.69,0,1.24,0.56,1.24,1.24c0,0,0,0,0,0v2.18c0,0.69-0.56,1.24-1.24,1.24l0,0h-71.46
				c-0.69,0-1.24-0.56-1.24-1.24v-2.18C-26.03,26.52-25.47,25.97-24.79,25.97C-24.79,25.97-24.79,25.97-24.79,25.97z"/>
			<path class="st5" d="M-24.79,32.49h71.46c0.69,0,1.24,0.56,1.24,1.24c0,0,0,0,0,0v2.18c0,0.69-0.56,1.24-1.24,1.24l0,0h-71.46
				c-0.69,0-1.24-0.56-1.24-1.24v-2.18C-26.03,33.05-25.47,32.49-24.79,32.49C-24.79,32.49-24.79,32.49-24.79,32.49z"/>
			<path class="st5" d="M-24.79,39.02h71.46c0.69,0,1.24,0.56,1.24,1.24c0,0,0,0,0,0v2.18c0,0.69-0.56,1.24-1.24,1.24l0,0h-71.46
				c-0.69,0-1.24-0.56-1.24-1.24v-2.18C-26.03,39.57-25.47,39.02-24.79,39.02C-24.79,39.02-24.79,39.02-24.79,39.02z"/>
			<path class="st5" d="M-24.79,45.54h71.46c0.69,0,1.24,0.56,1.24,1.24c0,0,0,0,0,0v2.18c0,0.69-0.56,1.24-1.24,1.24l0,0h-71.46
				c-0.69,0-1.24-0.56-1.24-1.24v-2.18C-26.03,46.1-25.47,45.54-24.79,45.54C-24.79,45.54-24.79,45.54-24.79,45.54z"/>
		</g>
		<g transform="translate(267.088 64.943)">
			<path class="st2" d="M-9.38,57.24h-78.36c-2.58,0-4.67-2.09-4.67-4.67V-6.02c0-2.58,2.09-4.67,4.67-4.67h78.36
				c2.58,0,4.67,2.09,4.67,4.67v58.59C-4.7,55.15-6.8,57.24-9.38,57.24L-9.38,57.24z"/>
			<path class="st1" d="M-87.74-8.24c-1.22,0-2.21,0.99-2.21,2.21v58.59c0,1.22,0.99,2.21,2.21,2.21h78.36
				c1.22,0,2.21-0.99,2.21-2.21V-6.02c0-1.22-0.99-2.21-2.21-2.21H-87.74z"/>
			<path class="st4" d="M-84.25-3.86h31.38c0.69,0,1.24,0.56,1.24,1.24c0,0,0,0,0,0v15.23c0,0.69-0.56,1.24-1.24,1.24l0,0h-31.38
				c-0.69,0-1.24-0.56-1.24-1.24c0,0,0,0,0,0V-2.62C-85.49-3.3-84.94-3.86-84.25-3.86C-84.25-3.86-84.25-3.86-84.25-3.86z"/>
			<path class="st5" d="M-47.28-3.86h34.49c0.69,0,1.24,0.55,1.25,1.24c0,0,0,0,0,0v2.18c0,0.69-0.56,1.24-1.24,1.24l0,0h-34.49
				c-0.69,0-1.24-0.56-1.24-1.24v-2.18C-48.52-3.3-47.96-3.86-47.28-3.86C-47.28-3.86-47.28-3.86-47.28-3.86z"/>
			<path class="st5" d="M-47.28,2.66h11.86c0.69,0,1.24,0.56,1.24,1.24c0,0,0,0,0,0v2.18c0,0.69-0.56,1.24-1.24,1.24c0,0,0,0,0,0
				h-11.86c-0.69,0-1.24-0.56-1.24-1.24V3.91C-48.52,3.22-47.96,2.66-47.28,2.66C-47.28,2.66-47.28,2.66-47.28,2.66z"/>
			<path class="st5" d="M-47.28,9.19h34.49c0.69,0,1.24,0.55,1.25,1.24c0,0,0,0,0,0v2.18c0,0.69-0.56,1.24-1.24,1.24l0,0h-34.49
				c-0.69,0-1.24-0.56-1.24-1.24v-2.18C-48.52,9.75-47.96,9.19-47.28,9.19C-47.28,9.19-47.28,9.19-47.28,9.19z"/>
			<path class="st5" d="M-84.25,19.44h71.46c0.69,0,1.24,0.56,1.24,1.24c0,0,0,0,0,0v2.18c0,0.69-0.56,1.24-1.24,1.24l0,0h-71.46
				c-0.69,0-1.24-0.56-1.24-1.24v-2.18C-85.49,20-84.94,19.44-84.25,19.44C-84.25,19.44-84.25,19.44-84.25,19.44z"/>
			<path class="st5" d="M-84.25,25.97h71.46c0.69,0,1.24,0.56,1.24,1.24c0,0,0,0,0,0v2.18c0,0.69-0.56,1.24-1.24,1.24l0,0h-71.46
				c-0.69,0-1.24-0.56-1.24-1.24v-2.18C-85.49,26.52-84.94,25.97-84.25,25.97C-84.25,25.97-84.25,25.97-84.25,25.97z"/>
			<path class="st5" d="M-84.25,32.49h71.46c0.69,0,1.24,0.56,1.24,1.24c0,0,0,0,0,0v2.18c0,0.69-0.56,1.24-1.24,1.24l0,0h-71.46
				c-0.69,0-1.24-0.56-1.24-1.24v-2.18C-85.49,33.05-84.94,32.49-84.25,32.49C-84.25,32.49-84.25,32.49-84.25,32.49z"/>
			<path class="st5" d="M-84.25,39.02h71.46c0.69,0,1.24,0.56,1.24,1.24c0,0,0,0,0,0v2.18c0,0.69-0.56,1.24-1.24,1.24l0,0h-71.46
				c-0.69,0-1.24-0.56-1.24-1.24v-2.18C-85.49,39.57-84.94,39.02-84.25,39.02C-84.25,39.02-84.25,39.02-84.25,39.02z"/>
			<path class="st5" d="M-84.25,45.54h71.46c0.69,0,1.24,0.56,1.24,1.24c0,0,0,0,0,0v2.18c0,0.69-0.56,1.24-1.24,1.24l0,0h-71.46
				c-0.69,0-1.24-0.56-1.24-1.24v-2.18C-85.49,46.1-84.94,45.54-84.25,45.54C-84.25,45.54-84.25,45.54-84.25,45.54z"/>
		</g>
		<g transform="translate(434.224 64.943)">
			<path class="st2" d="M-68.84,57.24h-78.36c-2.58,0-4.67-2.09-4.67-4.67V-6.02c0-2.58,2.09-4.67,4.67-4.67h78.36
				c2.58,0,4.67,2.09,4.67,4.67v58.59C-64.17,55.15-66.26,57.24-68.84,57.24L-68.84,57.24z"/>
			<path class="st1" d="M-147.21-8.24c-1.22,0-2.21,0.99-2.21,2.21v58.59c0,1.22,0.99,2.21,2.21,2.21h78.36
				c1.22,0,2.21-0.99,2.21-2.21V-6.02c0-1.22-0.99-2.21-2.21-2.21H-147.21z"/>
			<path class="st4" d="M-143.72-3.86h31.38c0.69,0,1.24,0.56,1.24,1.24c0,0,0,0,0,0v15.23c0,0.69-0.56,1.24-1.24,1.24l0,0h-31.38
				c-0.69,0-1.24-0.56-1.24-1.24c0,0,0,0,0,0V-2.62C-144.96-3.3-144.4-3.86-143.72-3.86C-143.72-3.86-143.72-3.86-143.72-3.86z"/>
			<path class="st5" d="M-106.74-3.86h34.49c0.69,0,1.24,0.55,1.25,1.24c0,0,0,0,0,0v2.18c0,0.69-0.56,1.24-1.24,1.24l0,0h-34.49
				c-0.69,0-1.24-0.56-1.24-1.24v-2.18C-107.99-3.3-107.43-3.86-106.74-3.86C-106.74-3.86-106.74-3.86-106.74-3.86z"/>
			<path class="st5" d="M-106.74,2.66h11.86c0.69,0,1.24,0.56,1.24,1.24c0,0,0,0,0,0v2.18c0,0.69-0.56,1.24-1.24,1.24c0,0,0,0,0,0
				h-11.86c-0.69,0-1.24-0.56-1.24-1.24V3.91C-107.99,3.22-107.43,2.66-106.74,2.66C-106.74,2.66-106.74,2.66-106.74,2.66z"/>
			<path class="st5" d="M-106.74,9.19h34.49c0.69,0,1.24,0.55,1.25,1.24c0,0,0,0,0,0v2.18c0,0.69-0.56,1.24-1.24,1.24l0,0h-34.49
				c-0.69,0-1.24-0.56-1.24-1.24v-2.18C-107.99,9.75-107.43,9.19-106.74,9.19C-106.74,9.19-106.74,9.19-106.74,9.19z"/>
			<path class="st5" d="M-143.72,19.44h71.46c0.69,0,1.24,0.56,1.24,1.24c0,0,0,0,0,0v2.18c0,0.69-0.56,1.24-1.24,1.24l0,0h-71.46
				c-0.69,0-1.24-0.56-1.24-1.24v-2.18C-144.96,20-144.4,19.44-143.72,19.44C-143.72,19.44-143.72,19.44-143.72,19.44z"/>
			<path class="st5" d="M-143.72,25.97h71.46c0.69,0,1.24,0.56,1.24,1.24c0,0,0,0,0,0v2.18c0,0.69-0.56,1.24-1.24,1.24l0,0h-71.46
				c-0.69,0-1.24-0.56-1.24-1.24v-2.18C-144.96,26.52-144.4,25.97-143.72,25.97C-143.72,25.97-143.72,25.97-143.72,25.97z"/>
			<path class="st5" d="M-143.72,32.49h71.46c0.69,0,1.24,0.56,1.24,1.24c0,0,0,0,0,0v2.18c0,0.69-0.56,1.24-1.24,1.24l0,0h-71.46
				c-0.69,0-1.24-0.56-1.24-1.24v-2.18C-144.96,33.05-144.4,32.49-143.72,32.49C-143.72,32.49-143.72,32.49-143.72,32.49z"/>
			<path class="st5" d="M-143.72,39.02h71.46c0.69,0,1.24,0.56,1.24,1.24c0,0,0,0,0,0v2.18c0,0.69-0.56,1.24-1.24,1.24l0,0h-71.46
				c-0.69,0-1.24-0.56-1.24-1.24v-2.18C-144.96,39.57-144.4,39.02-143.72,39.02C-143.72,39.02-143.72,39.02-143.72,39.02z"/>
			<path class="st5" d="M-143.72,45.54h71.46c0.69,0,1.24,0.56,1.24,1.24c0,0,0,0,0,0v2.18c0,0.69-0.56,1.24-1.24,1.24l0,0h-71.46
				c-0.69,0-1.24-0.56-1.24-1.24v-2.18C-144.96,46.1-144.4,45.54-143.72,45.54C-143.72,45.54-143.72,45.54-143.72,45.54z"/>
		</g>
		<path class="st2" d="M365.38,201.45h-78.36c-2.58,0-4.67-2.09-4.67-4.67v-58.59c0-2.58,2.09-4.67,4.67-4.67h78.36
			c2.58,0,4.67,2.09,4.67,4.67v58.59C370.05,199.36,367.96,201.45,365.38,201.45L365.38,201.45z"/>
		<g transform="translate(99.951 187.992)">
			<path class="st2" d="M50.09,13.46h-78.36c-2.58,0-4.67-2.09-4.67-4.67V-49.8c0-2.58,2.09-4.67,4.67-4.67h78.36
				c2.58,0,4.67,2.09,4.67,4.67V8.78C54.76,11.36,52.67,13.46,50.09,13.46L50.09,13.46z"/>
			<path class="st1" d="M-28.27-52.02c-1.22,0-2.21,0.99-2.21,2.21V8.79c0,1.22,0.99,2.21,2.21,2.21h78.36
				c1.22,0,2.21-0.99,2.21-2.21V-49.8c0-1.22-0.99-2.21-2.21-2.21H-28.27z"/>
			<path class="st4" d="M-24.79-47.64H6.6c0.69,0,1.24,0.56,1.24,1.24c0,0,0,0,0,0v15.23c0,0.69-0.56,1.24-1.24,1.24l0,0h-31.38
				c-0.69,0-1.24-0.56-1.24-1.24c0,0,0,0,0,0V-46.4C-26.03-47.08-25.47-47.64-24.79-47.64C-24.79-47.64-24.79-47.64-24.79-47.64z"/>
			<path class="st5" d="M12.19-47.64h34.49c0.69,0,1.24,0.55,1.25,1.24c0,0,0,0,0,0v2.18c0,0.69-0.56,1.24-1.24,1.24l0,0H12.19
				c-0.69,0-1.24-0.56-1.24-1.24v-2.18C10.95-47.08,11.5-47.64,12.19-47.64C12.19-47.64,12.19-47.64,12.19-47.64z"/>
			<path class="st5" d="M12.19-41.12h11.86c0.69,0,1.24,0.56,1.24,1.24c0,0,0,0,0,0v2.18c0,0.69-0.56,1.24-1.24,1.24c0,0,0,0,0,0
				H12.19c-0.69,0-1.24-0.56-1.24-1.24v-2.18C10.95-40.56,11.5-41.12,12.19-41.12C12.19-41.12,12.19-41.12,12.19-41.12z"/>
			<path class="st5" d="M12.19-34.59h34.49c0.69,0,1.24,0.55,1.25,1.24c0,0,0,0,0,0v2.18c0,0.69-0.56,1.24-1.24,1.24l0,0H12.19
				c-0.69,0-1.24-0.56-1.24-1.24v-2.18C10.95-34.04,11.5-34.59,12.19-34.59C12.19-34.59,12.19-34.59,12.19-34.59z"/>
			<path class="st5" d="M-24.79-24.34h71.46c0.69,0,1.24,0.56,1.24,1.24c0,0,0,0,0,0v2.18c0,0.69-0.56,1.24-1.24,1.24l0,0h-71.46
				c-0.69,0-1.24-0.56-1.24-1.24v-2.18C-26.03-23.78-25.47-24.34-24.79-24.34C-24.79-24.34-24.79-24.34-24.79-24.34z"/>
			<path class="st5" d="M-24.79-17.81h71.46c0.69,0,1.24,0.56,1.24,1.24c0,0,0,0,0,0v2.18c0,0.69-0.56,1.24-1.24,1.24l0,0h-71.46
				c-0.69,0-1.24-0.56-1.24-1.24v-2.18C-26.03-17.26-25.47-17.81-24.79-17.81C-24.79-17.81-24.79-17.81-24.79-17.81z"/>
			<path class="st5" d="M-24.79-11.29h71.46c0.69,0,1.24,0.56,1.24,1.24c0,0,0,0,0,0v2.18c0,0.69-0.56,1.24-1.24,1.24l0,0h-71.46
				c-0.69,0-1.24-0.56-1.24-1.24v-2.18C-26.03-10.73-25.47-11.29-24.79-11.29C-24.79-11.29-24.79-11.29-24.79-11.29z"/>
			<path class="st5" d="M-24.79-4.76h71.46c0.69,0,1.24,0.56,1.24,1.24c0,0,0,0,0,0v2.18c0,0.69-0.56,1.24-1.24,1.24l0,0h-71.46
				c-0.69,0-1.24-0.56-1.24-1.24v-2.18C-26.03-4.21-25.47-4.76-24.79-4.76C-24.79-4.76-24.79-4.76-24.79-4.76z"/>
			<path class="st5" d="M-24.79,1.76h71.46c0.69,0,1.24,0.56,1.24,1.24c0,0,0,0,0,0v2.18c0,0.69-0.56,1.24-1.24,1.24l0,0h-71.46
				c-0.69,0-1.24-0.56-1.24-1.24V3C-26.03,2.32-25.47,1.76-24.79,1.76C-24.79,1.76-24.79,1.76-24.79,1.76z"/>
		</g>
		<g transform="translate(267.088 187.992)">
			<path class="st2" d="M-9.38,13.46h-78.36c-2.58,0-4.67-2.09-4.67-4.67V-49.8c0-2.58,2.09-4.67,4.67-4.67h78.36
				c2.58,0,4.67,2.09,4.67,4.67V8.78C-4.7,11.36-6.8,13.46-9.38,13.46L-9.38,13.46z"/>
			<path class="st1" d="M-87.74-52.02c-1.22,0-2.21,0.99-2.21,2.21V8.79c0,1.22,0.99,2.21,2.21,2.21h78.36
				c1.22,0,2.21-0.99,2.21-2.21V-49.8c0-1.22-0.99-2.21-2.21-2.21H-87.74z"/>
			<path class="st4" d="M-84.25-47.64h31.38c0.69,0,1.24,0.56,1.24,1.24c0,0,0,0,0,0v15.23c0,0.69-0.56,1.24-1.24,1.24l0,0h-31.38
				c-0.69,0-1.24-0.56-1.24-1.24c0,0,0,0,0,0V-46.4C-85.49-47.08-84.94-47.64-84.25-47.64C-84.25-47.64-84.25-47.64-84.25-47.64z"/>
			<path class="st5" d="M-47.28-47.64h34.49c0.69,0,1.24,0.55,1.25,1.24c0,0,0,0,0,0v2.18c0,0.69-0.56,1.24-1.24,1.24l0,0h-34.49
				c-0.69,0-1.24-0.56-1.24-1.24v-2.18C-48.52-47.08-47.96-47.64-47.28-47.64C-47.28-47.64-47.28-47.64-47.28-47.64z"/>
			<path class="st5" d="M-47.28-41.12h11.86c0.69,0,1.24,0.56,1.24,1.24c0,0,0,0,0,0v2.18c0,0.69-0.56,1.24-1.24,1.24c0,0,0,0,0,0
				h-11.86c-0.69,0-1.24-0.56-1.24-1.24v-2.18C-48.52-40.56-47.96-41.12-47.28-41.12C-47.28-41.12-47.28-41.12-47.28-41.12z"/>
			<path class="st5" d="M-47.28-34.59h34.49c0.69,0,1.24,0.55,1.25,1.24c0,0,0,0,0,0v2.18c0,0.69-0.56,1.24-1.24,1.24l0,0h-34.49
				c-0.69,0-1.24-0.56-1.24-1.24v-2.18C-48.52-34.04-47.96-34.59-47.28-34.59C-47.28-34.59-47.28-34.59-47.28-34.59z"/>
			<path class="st5" d="M-84.25-24.34h71.46c0.69,0,1.24,0.56,1.24,1.24c0,0,0,0,0,0v2.18c0,0.69-0.56,1.24-1.24,1.24l0,0h-71.46
				c-0.69,0-1.24-0.56-1.24-1.24v-2.18C-85.49-23.78-84.94-24.34-84.25-24.34C-84.25-24.34-84.25-24.34-84.25-24.34z"/>
			<path class="st5" d="M-84.25-17.81h71.46c0.69,0,1.24,0.56,1.24,1.24c0,0,0,0,0,0v2.18c0,0.69-0.56,1.24-1.24,1.24l0,0h-71.46
				c-0.69,0-1.24-0.56-1.24-1.24v-2.18C-85.49-17.26-84.94-17.81-84.25-17.81C-84.25-17.81-84.25-17.81-84.25-17.81z"/>
			<path class="st5" d="M-84.25-11.29h71.46c0.69,0,1.24,0.56,1.24,1.24c0,0,0,0,0,0v2.18c0,0.69-0.56,1.24-1.24,1.24l0,0h-71.46
				c-0.69,0-1.24-0.56-1.24-1.24v-2.18C-85.49-10.73-84.94-11.29-84.25-11.29C-84.25-11.29-84.25-11.29-84.25-11.29z"/>
			<path class="st5" d="M-84.25-4.76h71.46c0.69,0,1.24,0.56,1.24,1.24c0,0,0,0,0,0v2.18c0,0.69-0.56,1.24-1.24,1.24l0,0h-71.46
				c-0.69,0-1.24-0.56-1.24-1.24v-2.18C-85.49-4.21-84.94-4.76-84.25-4.76C-84.25-4.76-84.25-4.76-84.25-4.76z"/>
			<path class="st5" d="M-84.25,1.76h71.46c0.69,0,1.24,0.56,1.24,1.24c0,0,0,0,0,0v2.18c0,0.69-0.56,1.24-1.24,1.24l0,0h-71.46
				c-0.69,0-1.24-0.56-1.24-1.24V3C-85.49,2.32-84.94,1.76-84.25,1.76C-84.25,1.76-84.25,1.76-84.25,1.76z"/>
		</g>
	</g>
	<g transform="translate(877.452 356.762)">
		<path class="st6" d="M-118.44,37.65c0,0-17.88,2.48-21.6,1.76l-9.93-9.44c0,0-9.44,7.2,5.46,11.92l27.81,3.23L-118.44,37.65z"/>
		<g transform="translate(0 11.645)">
			<path class="st2" d="M-134.72,29.99h-69.22c-2.28,0-4.13-1.85-4.13-4.13V-25.9c0-2.28,1.85-4.13,4.13-4.13h69.22
				c2.28,0,4.13,1.85,4.13,4.13v51.75C-130.59,28.13-132.44,29.98-134.72,29.99L-134.72,29.99z"/>
			<path class="st1" d="M-203.94-27.86c-1.08,0-1.95,0.88-1.96,1.96v51.76c0,1.08,0.88,1.95,1.96,1.96h69.22
				c1.08,0,1.95-0.88,1.96-1.96V-25.9c0-1.08-0.88-1.95-1.96-1.96H-203.94z"/>
			<path class="st4" d="M-200.86-23.99h27.73c0.6,0,1.1,0.49,1.1,1.1c0,0,0,0,0,0v13.45c0,0.6-0.49,1.1-1.1,1.1l0,0h-27.73
				c-0.6,0-1.1-0.49-1.1-1.1c0,0,0,0,0,0V-22.9C-201.96-23.5-201.47-23.99-200.86-23.99C-200.86-23.99-200.86-23.99-200.86-23.99z"
				/>
			<path class="st5" d="M-168.2-23.99h30.47c0.6,0,1.1,0.49,1.1,1.1c0,0,0,0,0,0v1.92c0,0.6-0.49,1.1-1.1,1.1l0,0h-30.47
				c-0.6,0-1.1-0.49-1.1-1.1c0,0,0,0,0,0v-1.92C-169.3-23.5-168.81-23.99-168.2-23.99C-168.2-23.99-168.2-23.99-168.2-23.99z"/>
			<path class="st5" d="M-168.2-18.23h10.48c0.6,0,1.1,0.49,1.1,1.1c0,0,0,0,0,0v1.92c0,0.6-0.49,1.1-1.1,1.1c0,0,0,0,0,0h-10.48
				c-0.6,0-1.1-0.49-1.1-1.1c0,0,0,0,0,0v-1.92C-169.3-17.74-168.81-18.23-168.2-18.23C-168.2-18.23-168.2-18.23-168.2-18.23z"/>
			<path class="st5" d="M-168.2-12.46h30.47c0.6,0,1.1,0.49,1.1,1.1c0,0,0,0,0,0v1.92c0,0.6-0.49,1.1-1.1,1.1l0,0h-30.47
				c-0.6,0-1.1-0.49-1.1-1.1c0,0,0,0,0,0v-1.92C-169.3-11.97-168.81-12.46-168.2-12.46C-168.2-12.46-168.2-12.46-168.2-12.46z"/>
			<path class="st5" d="M-200.86-3.41h63.13c0.6,0,1.1,0.49,1.1,1.1v1.92c0,0.6-0.49,1.1-1.1,1.1h-63.13c-0.6,0-1.1-0.49-1.1-1.1
				c0,0,0,0,0,0v-1.92C-201.96-2.92-201.47-3.41-200.86-3.41C-200.86-3.41-200.86-3.41-200.86-3.41z"/>
			<path class="st5" d="M-200.86,2.36h63.13c0.6,0,1.1,0.49,1.1,1.1v1.92c0,0.6-0.49,1.1-1.1,1.1h-63.13c-0.6,0-1.1-0.49-1.1-1.1
				c0,0,0,0,0,0V3.45C-201.96,2.85-201.47,2.36-200.86,2.36C-200.86,2.36-200.86,2.36-200.86,2.36z"/>
			<path class="st5" d="M-200.86,8.12h63.13c0.6,0,1.1,0.49,1.1,1.1v1.92c0,0.6-0.49,1.1-1.1,1.1h-63.13c-0.6,0-1.1-0.49-1.1-1.1
				c0,0,0,0,0,0V9.22C-201.96,8.61-201.47,8.12-200.86,8.12C-200.86,8.12-200.86,8.12-200.86,8.12z"/>
			<path class="st5" d="M-200.86,13.89h63.13c0.6,0,1.1,0.49,1.1,1.1v1.92c0,0.6-0.49,1.1-1.1,1.1h-63.13c-0.6,0-1.1-0.49-1.1-1.1
				c0,0,0,0,0,0v-1.92C-201.96,14.38-201.47,13.89-200.86,13.89C-200.86,13.89-200.86,13.89-200.86,13.89z"/>
			<path class="st5" d="M-200.86,19.65h63.13c0.6,0,1.1,0.49,1.1,1.1v1.92c0,0.6-0.49,1.1-1.1,1.1h-63.13c-0.6,0-1.1-0.49-1.1-1.1
				c0,0,0,0,0,0v-1.92C-201.96,20.14-201.47,19.65-200.86,19.65C-200.86,19.65-200.86,19.65-200.86,19.65z"/>
		</g>
		<path class="st0" d="M-111.98,138.47l-8.69,7.7c0,0-4.96,1.24-7.7,0.99c-2.73-0.25-3.97,4.22,2.48,4.72s27.06-0.99,27.06-0.99
			s1.99-7.94-3.97-12.42H-111.98z"/>
		<path class="st7" d="M-98.51,147.44c-0.01,0.91-0.12,1.81-0.31,2.69c0,0-20.63,1.49-27.06,0.99c-3.1-0.24-4.42-1.4-4.66-2.51
			c-0.28,1.27,0.84,2.96,4.66,3.25c6.46,0.5,27.06-0.99,27.06-0.99C-98.58,149.75-98.47,148.6-98.51,147.44z"/>
		<path class="st6" d="M-101.8-2.33c0,0,5.46,7.7,3.48,12.91c-1.99,5.21,10.42-5.46,10.42-5.46s-3.97-6.95-1.99-14.4L-101.8-2.33z"
			/>
		<path class="st0" d="M-103.27,141.44l-8.69,7.7c0,0-4.96,1.24-7.7,0.99c-2.73-0.25-3.97,4.22,2.48,4.72
			c6.46,0.5,27.06-0.99,27.06-0.99s1.99-7.94-3.97-12.42H-103.27z"/>
		<path class="st0" d="M-100.8,139.7c-1.26,1.46-3.1,2.3-5.03,2.3c-4.34,0.21-9.12-2.3-9.12-2.3c3.23-2.73-11.17-37.25-8.43-86.16
			l6.95-4.22l5.48,4.2l5.2,3.99c0.34,1.27,0.56,2.57,0.65,3.88c0.6,9.13-6.61,11.27-6.61,11.27s2.98,9.19,0.25,17.63
			c-2.73,8.44,1.99,15.89,1.99,15.89s8.94,25.82,7.46,27.31C-103.49,134.98-100.8,139.7-100.8,139.7z"/>
		<path class="st0" d="M-92.11,142.68c-4.22,5.21-14.15,0-14.15,0c0.2-0.18,0.35-0.42,0.44-0.68c1.82-4.95-6.15-28.62-6.15-28.62
			c-6.7-3.23-7.46-10.93-7.46-10.93l-1.76-39.79l-0.23-5.15l10.45-3.99l13.89,6.97c0.46,1.69,0.69,3.44,0.68,5.19
			c-0.14,8.02-6.65,9.95-6.65,9.95L-92.11,142.68z"/>
		<path class="st8" d="M-96.4,65.69c-2.15-0.31-6.49-2.89-8.73-4.3l-1.4-0.88c0,0-2.23-6.21-8.19-1.49
			c-1.94,1.57-4.13,2.81-6.47,3.66c-0.9,0.32-1.82,0.55-2.77,0.69l0.55-9.82l6.95-4.22l5.48,4.2l3.21-1.22l10.68,8.19
			C-96.62,62.2-96.39,63.94-96.4,65.69z"/>
		<path class="st5" d="M-82.96,18.05c-0.88,5.33-2.78,16.28-4.94,25.8c-2.98,13.17-6.21,10.18-7.7,13.41
			c-1.49,3.23-0.25,7.7-0.25,7.7c-2.48,0.25-10.68-5.21-10.68-5.21s-2.23-6.21-8.19-1.49s-10.68,4.47-10.68,4.47
			c-1.24-8.19,7.94-30.04,7.94-30.04s8.94-16.89,10.93-19.12c0.92-1.09,1.58-2.39,1.92-3.78c0.15-0.55,0.26-1.12,0.32-1.69
			c3.23-0.25,11.18-5.71,11.18-5.71l6.21-0.99v3.23c0.07,0.03,0.14,0.07,0.2,0.12c1.02,0.78,2.31,4.1,3.2,6.71
			C-82.79,13.58-82.6,15.84-82.96,18.05L-82.96,18.05z"/>
		<path class="st8" d="M-115.19,41c0.1-1.84-0.59-5.07-0.99-6.75c1.51-0.2,2.46-0.33,2.46-0.33l1.76,7.46L-115.19,41z"/>
		<circle class="st6" cx="-98.32" cy="-10.27" r="10.43"/>
		<path class="st0" d="M-111.51-18.96c1.05-1.08,2.42-1.8,3.91-2.05c1.45-0.31,3.04-0.41,4.2-1.32c1.32-1.05,1.9-3.04,3.51-3.49
			c0.7-0.14,1.43-0.08,2.1,0.17c2.58,0.78,4.87,2.31,6.58,4.39c0.4,0.6,0.92,1.11,1.51,1.51c0.36,0.15,0.71,0.32,1.04,0.51
			c0.37,0.29,0.66,0.68,0.85,1.11c1.16,2.35,1.43,5.05,0.76,7.58c-0.4,1.5-1.13,2.88-1.56,4.39c-0.43,1.51-0.54,3.18,0.25,4.51
			c-0.83,0.3-1.76-0.04-2.19-0.81c-0.4-0.76-0.7-1.57-0.88-2.41c-0.5-1.61-1.43-3.06-2.69-4.18c-0.78-0.69-2.19-1.16-2.73-0.26
			c-0.21,0.35-0.2,0.79-0.38,1.15c-0.45,0.68-1.37,0.88-2.06,0.44c-0.66-0.45-1.12-1.14-1.29-1.91c-1.02-3.46-2.77-5.64-6.47-4.16
			c-1.38,0.55-3,0.93-4.33-0.02C-113.1-15.07-112.76-17.54-111.51-18.96z"/>
		<path class="st7" d="M-89.82,150.42c-0.01,0.91-0.12,1.81-0.31,2.69c0,0-20.63,1.49-27.06,0.99c-3.1-0.24-4.42-1.4-4.66-2.51
			c-0.28,1.27,0.84,2.96,4.66,3.25c6.46,0.5,27.06-0.99,27.06-0.99C-89.89,152.73-89.78,151.58-89.82,150.42z"/>
		<path class="st6" d="M-111.98,41.38l-3.21-0.37l-24.58-2.86c-14.9-4.72-3.19-7.58-3.19-7.58l7.66,5.1
			c2.87,0.58,14.1-0.76,19.14-1.41c1.51-0.2,2.46-0.33,2.46-0.33L-111.98,41.38z"/>
		<path class="st5" d="M-87.91,7.36c0,0-6.46-5.21-16.14,11.67s-11.92,14.15-11.92,14.15s1.99,7.46,0.99,8.94c0,0,6.7-0.5,9.19,0
			s17.88-18.88,17.88-18.88S-79.94,12.32-87.91,7.36z"/>
	</g>
</g>
</svg>
