<?xml version="1.0" encoding="utf-8"?>
<!-- Generator: Adobe Illustrator 25.0.0, SVG Export Plug-In . SVG Version: 6.00 Build 0)  -->
<svg version="1.1" id="Layer_1" xmlns="http://www.w3.org/2000/svg" xmlns:xlink="http://www.w3.org/1999/xlink" x="0px" y="0px"
	 viewBox="0 0 512 512" style="enable-background:new 0 0 512 512;" xml:space="preserve">
<style type="text/css">
	.st0{fill:#CCCCCC;}
	.st1{fill:#B6B3C5;}
	.st2{fill:#D6D6E3;}
	.st3{fill:#090814;}
	.st4{fill:#FFFFFF;}
	.st5{fill:#F2F2F2;}
	.st6{fill:#E6E6E6;}
	.st7{fill:#F5BD1F;}
	.st8{fill:#2F2E41;}
	.st9{fill:#3F3D56;}
	.st10{opacity:0.2;enable-background:new    ;}
</style>
<g id="Group_301" transform="translate(-560 -231.001)">
	<path id="Path_782-3483" class="st0" d="M645.8,681.66c0,0.55,0.3,1,0.68,1h338.76c0.38,0,0.68-0.45,0.68-1s-0.3-1-0.68-1H646.47
		C646.1,680.67,645.8,681.11,645.8,681.66z"/>
	<rect id="Rectangle_253" x="756.27" y="678.38" class="st1" width="12.1" height="2.13"/>
	<rect id="Rectangle_254" x="863.35" y="678.73" class="st1" width="12.1" height="2.13"/>
	<path id="Path_783-3484" class="st2" d="M833.2,583.4c-1.57,9.5-10.54,15.92-20.03,14.35c-7.37-1.21-13.14-6.99-14.35-14.35h-43.99
		v95.34H877.2V583.4H833.2z"/>
	<rect id="Rectangle_255" x="755.18" y="671.18" class="st3" width="122.37" height="3.32"/>
	<path id="Path_784-3485" class="st3" d="M1062.11,585.89H569.9c-3.77,0-6.82-3.06-6.83-6.83V298.17c0-3.77,3.06-6.82,6.83-6.83
		h492.2c3.77,0,6.82,3.06,6.83,6.83v280.91C1068.93,582.83,1065.87,585.89,1062.11,585.89z"/>
	<rect id="Rectangle_256" x="575.45" y="302.73" class="st4" width="481.66" height="271.78"/>
	<path id="Rectangle_778" class="st5" d="M753.28,353.74H999.6c2.79,0,5.06,2.27,5.06,5.06v145.52c0,2.79-2.27,5.06-5.06,5.06
		H753.28c-2.79,0-5.06-2.27-5.06-5.06V358.8C748.22,356,750.48,353.74,753.28,353.74z"/>
	<rect id="Rectangle_779" x="753" y="358.39" class="st4" width="246.26" height="146"/>
	<path id="Rectangle_774" class="st5" d="M633.28,353.74h84.31c2.79,0,5.06,2.27,5.06,5.06v62.02c0,2.79-2.27,5.06-5.06,5.06h-84.31
		c-2.79,0-5.06-2.27-5.06-5.06V358.8C628.22,356,630.48,353.74,633.28,353.74z"/>
	<rect id="Rectangle_775" x="632.9" y="357.32" class="st4" width="85.05" height="64.98"/>
	<path id="Rectangle_776" class="st5" d="M633.28,437.24h84.31c2.79,0,5.06,2.27,5.06,5.06v62.02c0,2.79-2.27,5.06-5.06,5.06h-84.31
		c-2.79,0-5.06-2.27-5.06-5.06V442.3C628.22,439.51,630.48,437.24,633.28,437.24z"/>
	<rect id="Rectangle_777" x="632.9" y="440.83" class="st4" width="85.05" height="64.98"/>
	<g id="Group_299" transform="translate(20616.807 -22581.398)">
		<path id="Path_5157-3486" class="st6" d="M-19929.64,22947.82h-29.75c-2.1,0-3.8,1.71-3.8,3.8v34.93c0,2.1,1.71,3.8,3.8,3.8h29.75
			c2.1,0,3.8-1.71,3.8-3.8v-34.93C-19925.84,22949.52-19927.53,22947.82-19929.64,22947.82z"/>
		<path id="Path_5158-3487" class="st4" d="M-19929.64,22948.92h-29.75c-1.49,0-2.7,1.21-2.71,2.7v34.93c0,1.49,1.21,2.7,2.71,2.71
			h29.75c1.5,0,2.7-1.21,2.71-2.71v-34.93C-19926.92,22950.13-19928.14,22948.92-19929.64,22948.92z"/>
		<circle id="Ellipse_883" class="st7" cx="-19926.51" cy="22987.66" r="6.94"/>
		<path id="Path_5159-3488" class="st4" d="M-19923.19,22986.75h-2.42v-2.42c0-0.5-0.41-0.9-0.9-0.9c-0.5,0-0.9,0.41-0.9,0.9v2.42
			h-2.42c-0.5,0-0.9,0.4-0.9,0.9s0.4,0.9,0.9,0.9h2.42v2.42c0,0.5,0.4,0.9,0.9,0.9c0.5,0,0.9-0.41,0.9-0.9v-2.42h2.42
			c0.5,0,0.9-0.4,0.9-0.9C-19922.28,22987.16-19922.69,22986.75-19923.19,22986.75z"/>
		<path id="Path_5160-3489" class="st6" d="M-19934.12,22968.1h-15.04c-0.35,0-0.63-0.29-0.63-0.63c0-0.36,0.29-0.63,0.63-0.63
			h15.04c0.34,0,0.63,0.29,0.63,0.63C-19933.47,22967.83-19933.76,22968.1-19934.12,22968.1L-19934.12,22968.1z"/>
		<path id="Path_5161-3490" class="st6" d="M-19931.49,22970.25h-17.65c-0.35,0-0.63-0.29-0.63-0.63s0.29-0.63,0.63-0.63h17.65
			c0.35,0,0.63,0.29,0.63,0.63S-19931.15,22970.25-19931.49,22970.25z"/>
		<path id="Path_5162-3491" class="st6" d="M-19934.12,22977.69h-15.04c-0.35,0-0.63-0.29-0.63-0.63s0.29-0.63,0.63-0.63h15.04
			c0.34,0,0.63,0.29,0.63,0.63S-19933.76,22977.69-19934.12,22977.69z"/>
		<path id="Path_5163-3492" class="st6" d="M-19931.49,22979.82h-17.65c-0.35,0-0.63-0.29-0.63-0.63c0-0.35,0.29-0.63,0.63-0.63
			h17.65c0.35,0,0.63,0.29,0.63,0.63C-19930.86,22979.55-19931.15,22979.82-19931.49,22979.82z"/>
		<path id="Path_5164-3493" class="st6" d="M-19952.52,22971.22h-5.33c-0.17,0-0.31-0.14-0.31-0.3l0,0v-4.74
			c0-0.17,0.14-0.31,0.31-0.31l0,0h5.33c0.17,0,0.31,0.14,0.31,0.31l0,0v4.74
			C-19952.21,22971.08-19952.35,22971.22-19952.52,22971.22L-19952.52,22971.22z"/>
		<path id="Path_5165-3494" class="st6" d="M-19952.52,22980.79h-5.33c-0.17,0-0.31-0.14-0.31-0.31v-4.74
			c0-0.17,0.14-0.31,0.31-0.31h5.33c0.17,0,0.31,0.14,0.31,0.31v4.74C-19952.21,22980.66-19952.35,22980.79-19952.52,22980.79
			L-19952.52,22980.79z"/>
		<path id="Path_5166-3495" class="st7" d="M-19934.09,22957.44h-11.09c-0.36,0-0.63-0.29-0.63-0.63s0.29-0.63,0.63-0.63h11.09
			c0.35,0,0.63,0.29,0.63,0.63S-19933.75,22957.44-19934.09,22957.44L-19934.09,22957.44z"/>
		<path id="Path_5167-3496" class="st7" d="M-19931.48,22959.58h-13.7c-0.36,0-0.63-0.29-0.63-0.63c0-0.34,0.29-0.63,0.63-0.63h13.7
			c0.35,0,0.63,0.29,0.63,0.63C-19930.85,22959.29-19931.13,22959.58-19931.48,22959.58L-19931.48,22959.58z"/>
		<path id="Path_5168-3497" class="st7" d="M-19947.64,22962.17h-10.23c-0.17,0-0.31-0.14-0.31-0.31l0,0v-7.97
			c0-0.17,0.14-0.31,0.31-0.31l0,0h10.23c0.17,0,0.31,0.14,0.31,0.31v7.97C-19947.34,22962.03-19947.47,22962.17-19947.64,22962.17z
			"/>
	</g>
	<g id="Group_300" transform="translate(21087 -22304.855)">
		<path id="Path_5172-3498" class="st5" d="M-20175.66,22771.99h-64.99c-1.71,0-3.08-1.39-3.09-3.09v-88.23
			c0-1.71,1.39-3.08,3.09-3.08h64.99c1.71,0,3.08,1.39,3.08,3.08v88.23C-20172.56,22770.6-20173.95,22771.99-20175.66,22771.99z"/>
		<path id="Path_5174-3499" class="st8" d="M-20221.97,22712.45c-0.14,0.01-0.28,0.06-0.4,0.14c0.6-0.04,1.19-0.12,1.78-0.24
			L-20221.97,22712.45z"/>
		<path id="Path_5175-3500" class="st0" d="M-20223.16,22688.14c-6.85,0-12.4,5.55-12.39,12.41c0,4.43,2.37,8.53,6.21,10.75
			c0.63,0.37,1.28,0.68,1.97,0.92l0.12,0.04c1.32,0.46,2.7,0.7,4.1,0.7c0.28,0,0.54-0.01,0.8-0.04c0.62-0.03,1.22-0.12,1.83-0.25
			c0.33-0.07,0.66-0.16,0.98-0.25c0.08-0.02,0.15-0.04,0.23-0.07c6.52-2.12,10.07-9.12,7.95-15.64
			C-20213.02,22691.6-20217.79,22688.14-20223.16,22688.14L-20223.16,22688.14z M-20215.97,22709.83c-1.08,0.83-2.28,1.45-3.56,1.88
			l-0.22,0.07c-0.3,0.09-0.61,0.17-0.93,0.24c-0.57,0.12-1.14,0.21-1.73,0.24c-0.25,0.02-0.5,0.02-0.77,0.02
			c-1.32,0-2.64-0.22-3.88-0.65l-0.11-0.03c-0.68-0.24-1.34-0.55-1.96-0.92c-5.59-3.29-7.45-10.48-4.16-16.07s10.48-7.45,16.07-4.16
			c5.59,3.29,7.45,10.48,4.16,16.07C-20213.79,22707.79-20214.79,22708.92-20215.97,22709.83L-20215.97,22709.83z"/>
		<path id="Path_5178-3501" class="st6" d="M-20188.23,22700.49h-18.4c-0.8,0-1.45-0.65-1.45-1.46c0-0.8,0.65-1.45,1.45-1.45h18.4
			c0.8,0,1.45,0.65,1.45,1.45C-20186.78,22699.84-20187.43,22700.49-20188.23,22700.49z"/>
		<path id="Path_5179-3502" class="st6" d="M-20182.23,22705.4h-24.39c-0.8,0-1.45-0.65-1.45-1.46s0.65-1.45,1.45-1.45h24.4
			c0.8,0,1.45,0.65,1.45,1.45C-20180.78,22704.75-20181.43,22705.4-20182.23,22705.4L-20182.23,22705.4z"/>
		<path id="Path_5180-3503" class="st6" d="M-20188.27,22724.23h-45.81c-0.8,0-1.46-0.65-1.46-1.45s0.65-1.46,1.46-1.46h45.81
			c0.8,0,1.46,0.65,1.46,1.46C-20186.81,22723.59-20187.46,22724.23-20188.27,22724.23L-20188.27,22724.23z"/>
		<path id="Path_5181-3504" class="st6" d="M-20182.26,22729.15h-51.81c-0.8,0-1.46-0.65-1.46-1.46s0.65-1.45,1.46-1.45h51.81
			c0.8,0,1.45,0.65,1.45,1.45S-20181.45,22729.15-20182.26,22729.15L-20182.26,22729.15z"/>
		<path id="Path_5186-3505" class="st4" d="M-20148.54,22711.88c0.12-1.13-0.48-2.22-1.5-2.73l-50.09-24.48
			c-1.34-0.65-2.96-0.1-3.61,1.24l0,0l-18.8,38.44c-0.65,1.34-0.1,2.96,1.24,3.61l50.09,24.48c1.34,0.65,2.96,0.1,3.61-1.24
			l18.79-38.44C-20148.67,22712.49-20148.58,22712.19-20148.54,22711.88z"/>
		<path id="Path_5187-3506" class="st9" d="M-20148.54,22711.88c0.12-1.13-0.48-2.22-1.5-2.73l-50.09-24.48
			c-1.34-0.65-2.96-0.1-3.61,1.24l0,0l-18.8,38.44c-0.65,1.34-0.1,2.96,1.24,3.61l50.09,24.48c1.34,0.65,2.96,0.1,3.61-1.24
			l18.79-38.44C-20148.67,22712.49-20148.58,22712.19-20148.54,22711.88z M-20167.87,22751.07c-0.58,1.18-2,1.67-3.18,1.1
			l-50.09-24.48c-1.18-0.58-1.67-2-1.1-3.18l18.79-38.44c0.58-1.18,2-1.67,3.18-1.1l50.09,24.48c1.18,0.58,1.67,2,1.1,3.19
			L-20167.87,22751.07z"/>
		<path id="Path_5188-3507" class="st6" d="M-20154.01,22713.64l-13.12,26.84c-0.18,0.38-0.63,0.53-1.01,0.35l0,0l-45.57-22.27
			c-0.03-0.01-0.06-0.03-0.09-0.06c-0.31-0.21-0.41-0.62-0.25-0.95l13.12-26.84c0.18-0.38,0.63-0.53,1.01-0.34l0,0l45.57,22.27
			C-20153.98,22712.81-20153.82,22713.26-20154.01,22713.64L-20154.01,22713.64L-20154.01,22713.64z"/>
		<circle id="Ellipse_885" class="st7" cx="-20194.01" cy="22705.67" r="6.6"/>
		<path id="Path_5189-3508" class="st3" d="M-20184.35,22733.03l-29.08-14.21c-0.03-0.02-0.07-0.04-0.1-0.07l25.41-17.1
			c0.49-0.33,1.16-0.22,1.49,0.28c0.12,0.16,0.17,0.35,0.18,0.54l1.42,20.51l0.07,0.98L-20184.35,22733.03z"/>
		<path id="Path_5190-3509" class="st10" d="M-20184.35,22733.03l-9.93-4.86l8.34-4.7l0.59-0.33l0.3-0.17l0.07,0.98
			L-20184.35,22733.03z"/>
		<path id="Path_5191-3510" class="st3" d="M-20168.15,22740.95l-25.16-12.29l8.34-4.7l0.59-0.33l10.86-6.13
			c0.71-0.33,1.57-0.03,1.9,0.68c0.02,0.04,0.04,0.09,0.06,0.14c0.01,0.04,0.02,0.1,0.03,0.16L-20168.15,22740.95z"/>
		<path id="Path_5201-3511" class="st7" d="M-20156.35,22791.82h-110.13c-4.07,0-7.37-3.3-7.37-7.37v-60.48
			c0-4.07,3.3-7.37,7.37-7.37h13.5c1.83,0,3.6,0.69,4.96,1.91l14.64,10.46c0.95,0.87,2.2,1.35,3.49,1.35h74.21
			c4.07,0,7.37,3.3,7.37,7.37c0,0.04,0,0.07,0,0.1l-0.69,46.76C-20149.07,22788.59-20152.33,22791.8-20156.35,22791.82z"/>
		<path id="Path_5202-3512" class="st7" d="M-20222.72,22708.53h0.01c4.41-0.24,7.79-4.01,7.55-8.42c-0.22-4.01-3.37-7.23-7.37-7.54
			c-0.1-0.01-0.19,0.07-0.19,0.17v0.01l-0.17,15.59C-20222.91,22708.45-20222.83,22708.53-20222.72,22708.53L-20222.72,22708.53
			L-20222.72,22708.53z"/>
		<path id="Path_5203-3513" class="st6" d="M-20228.99,22695.15c0.06,0,0.12,0.02,0.16,0.07l5.37,5.49c0.04,0.04,0.07,0.1,0.07,0.16
			l-0.08,7.46c0,0.06-0.03,0.12-0.08,0.17c-0.04,0.04-0.11,0.07-0.17,0.07c-4.43-0.33-7.75-4.19-7.42-8.62
			c0.12-1.74,0.83-3.4,1.98-4.72C-20229.13,22695.18-20229.07,22695.16-20228.99,22695.15L-20228.99,22695.15z"/>
		<path id="Path_5204-3514" class="st3" d="M-20223.54,22692.52c0.06,0,0.11,0.02,0.16,0.06c0.04,0.04,0.07,0.1,0.07,0.17
			l-0.08,6.74c0,0.12-0.1,0.23-0.24,0.23c-0.06,0-0.12-0.02-0.16-0.07l-4.68-4.79c-0.09-0.09-0.09-0.24,0-0.33l0.01-0.01
			c1.36-1.2,3.09-1.9,4.9-2L-20223.54,22692.52z"/>
	</g>
	<path id="Path_5214-3515" class="st2" d="M675.43,474.69c-5.51,0-9.99-4.77-9.99-10.62s4.48-10.62,9.99-10.62s9.99,4.77,9.99,10.62
		C685.43,469.92,680.94,474.69,675.43,474.69z M675.43,456.13c-4.03,0-7.31,3.56-7.31,7.94c0,4.38,3.28,7.94,7.31,7.94
		s7.31-3.56,7.31-7.94C682.74,459.69,679.46,456.13,675.43,456.13L675.43,456.13z"/>
	<path id="Path_5215-3516" class="st7" d="M684.89,493.19h-18.92c-3.47,0-6.29-2.82-6.3-6.3v-18.57c0-2.38,1.94-4.31,4.31-4.31h22.9
		c2.38,0,4.31,1.94,4.31,4.31v18.57C691.18,490.36,688.36,493.18,684.89,493.19z"/>
	<path id="Path_5216-3517" class="st4" d="M679.12,474.57c0-2.04-1.65-3.69-3.69-3.69c-2.04,0-3.69,1.65-3.69,3.69
		c0,1.39,0.78,2.66,2.02,3.29v5.77h3.36v-5.77C678.34,477.23,679.12,475.96,679.12,474.57z"/>
</g>
</svg>
