<?xml version="1.0" encoding="utf-8"?>
<!-- Generator: Adobe Illustrator 25.0.0, SVG Export Plug-In . SVG Version: 6.00 Build 0)  -->
<svg version="1.1" id="Layer_1" xmlns="http://www.w3.org/2000/svg" xmlns:xlink="http://www.w3.org/1999/xlink" x="0px" y="0px"
	 viewBox="0 0 865.7 576.4" style="enable-background:new 0 0 865.7 576.4;" xml:space="preserve">
<style type="text/css">
	.st0{fill:#FFB6B6;}
	.st1{fill:#2F2E41;}
	.st2{fill:#E6E6E6;}
	.st3{fill:#FFFFFF;}
	.st4{fill:#E4E4E4;}
	.st5{fill:#3F3D56;}
	.st6{fill:#47297B;}
</style>
<path class="st0" d="M549.8,320.1c6.3-1.3,10.4-7.4,9.2-13.8c-0.1-0.7-0.3-1.3-0.6-2l31.5-27.1l-20.6-5.8l-26.7,26.7
	c-5.8,2.8-8.4,9.7-5.7,15.6C539.2,318.6,544.6,321.3,549.8,320.1L549.8,320.1z"/>
<polygon class="st0" points="714.1,561.4 700,561.4 693.2,507 714.1,507 "/>
<path class="st1" d="M717.7,575.1h-45.5v-0.6c0-9.8,7.9-17.7,17.7-17.7l0,0l8.3-6.3l15.5,6.3h4V575.1z"/>
<polygon class="st0" points="648.5,561.4 634.4,561.4 627.7,507 648.6,507 "/>
<path class="st1" d="M652.1,575.1h-45.5v-0.6c0-9.8,7.9-17.7,17.7-17.7l0,0l8.3-6.3l15.5,6.3h4V575.1z"/>
<path class="st1" d="M642.4,264l91.7,2.3c17.4,9.5,17.7,29.9,12,54.2c0,0,1.9,14.5-1.9,18.3s-5.8,3.9-3.9,10.6s-8.3,17.8-7,19
	s4.1,8,4.1,8l-9.6,54.9c0,0-6.7,95.4-8.7,97.3s-3.9,0-1.9,4.8s3.9,2.9,1.9,4.8c-1.7,1.8-3.3,3.8-4.8,5.8H691c0,0-1.8-9.6-1.8-10.6
	s-1.9-6.7-1.9-7.7s1.7-2.7,1.7-2.7c0.6-2,1-4,1.2-6c0-1.9,5.8-76.1,5.8-76.1l-11.6-96.3L656.5,439c0,0,0,82.8-1.9,84.8s-1.9,1-1,4.8
	s4.8,2.9,1.9,5.8s-3.9-1.9-2.9,2.9l1,4.8l-28.9,0.4c0,0-3.9-8.1-1.9-11s1.8-2.1-0.5-6.8s-3.3-5.7-2.4-6.7s1-6.1,1-6.1l4.8-92.2
	c0,0,1-97.3,1-100.2c0.1-1.5-0.2-3-0.8-4.3v-3.9l3.7-13.9L642.4,264z"/>
<path class="st2" d="M548.8,288.8l15.5,12.5l84.5-65.5l-5-114l0,0c-9.6,7.7-15.7,18.9-17,31.1l-14.5,64.4L548.8,288.8z"/>
<path class="st2" d="M628.8,292.8c29.9,3.8,57.5-7.8,83.5-16.5c11.8-3.9,23.6,0.2,34.5-6.5c-4.7-46.5-0.1-98.8,9.9-154.6
	c1.2-6.5-2.7-12.9-9-14.9L715.4,91l-9.9-11l-25.7,6.5l-9,16.2l-30.9,20.9c-3.7,2.5-5.6,6.9-4.8,11.3
	C644.3,187.5,642.2,241.3,628.8,292.8z"/>
<path class="st0" d="M724.2,307.2c5.7-3,8-10,5.1-15.8c-0.3-0.6-0.7-1.2-1.1-1.7l22.9-34.7h-21.4l-18.5,33
	c-4.9,4.3-5.4,11.7-1.2,16.6C713.6,308.7,719.5,309.8,724.2,307.2L724.2,307.2z"/>
<path class="st2" d="M717.8,274.8l14,18l49-73l-4.2-74.2c-1.1-19.2-12-36.5-28.8-45.8l0,0l1,114L717.8,274.8z"/>
<circle class="st0" cx="682.6" cy="44.5" r="31.3"/>
<path class="st1" d="M662.6,26.1c1.2,0,2.4,0.2,3.6,0.5c2.3,0.6,4.7,1,7,1.2c14.9,1.4,27,12.8,29.2,27.6c1.8-1.6,6-4.5,9.4-1.8l0,0
	c0.1,0,0.1,0.1,0.2,0c2.3-1.1,6.3-14.2,6.4-25.8c0.1-6.2-0.9-14-5.9-16.5l-0.3-0.1l-0.1-0.3c-0.3-1.4-4-3.7-10.5-5.6
	C689.9,2,672.4-4.6,662.5,5c-0.7,3.2-3.2,10.1-5.6,10.9c-2.7,0.9-5.1,1.6-5.4,4.9c-0.3,4.7-0.3,9.5,0.1,14.2
	c0.9-2.9,2.7-5.4,5.2-7.2C658.5,26.7,660.5,26.1,662.6,26.1z"/>
<path class="st2" d="M357.3,101.1l-117.6,26.5c-6.6,1.5-10.7,8-9.2,14.6l32.3,143.4L401,254.5c1.1-0.3,2.2-0.8,3-1.7l-32-142.4
	C370.4,103.8,363.8,99.7,357.3,101.1z"/>
<path class="st3" d="M314.5,120.9L250,135.4c-6,1.4-9.7,7.3-8.4,13.3L272,283.4l122.7-27.6l-22.1-98.2
	C366.8,131.5,340.8,115,314.5,120.9z"/>
<path class="st4" d="M371.2,248.5l-80.9,18.2c-1.5,0.3-2.4,1.8-2.1,3.2c0.3,1.5,1.8,2.4,3.2,2.1l0,0l80.9-18.2
	c1.5-0.3,2.4-1.8,2.1-3.2C374.1,249.1,372.6,248.2,371.2,248.5L371.2,248.5z"/>
<path class="st4" d="M368.8,238.1l-80.9,18.2c-1.5,0.3-2.4,1.8-2,3.2c0.3,1.5,1.8,2.4,3.2,2l0,0l80.9-18.2c1.5-0.3,2.4-1.8,2-3.2
	C371.7,238.7,370.3,237.8,368.8,238.1L368.8,238.1z"/>
<path class="st4" d="M320.6,238l-35.1,7.9c-1.5,0.3-2.4,1.8-2,3.2c0.3,1.5,1.8,2.4,3.2,2l0,0l35.1-7.9c1.5-0.3,2.4-1.8,2.1-3.2
	C323.5,238.6,322.1,237.7,320.6,238L320.6,238z"/>
<path class="st4" d="M361.6,205.8l-81,18.2c-1.5,0.3-2.4,1.8-2,3.2c0.3,1.5,1.8,2.4,3.2,2l0,0l80.9-18.2c1.5-0.3,2.4-1.8,2-3.2
	C364.5,206.4,363,205.5,361.6,205.8z"/>
<path class="st4" d="M359.2,195.4l-80.9,18.2c-1.5,0.3-2.4,1.8-2.1,3.2c0.3,1.5,1.8,2.4,3.2,2.1l0,0l80.9-18.2
	c1.5-0.3,2.4-1.8,2-3.2C362.1,196,360.7,195.1,359.2,195.4L359.2,195.4L359.2,195.4z"/>
<path class="st4" d="M311,195.3l-35.1,7.9c-1.5,0.3-2.4,1.8-2,3.2c0.3,1.5,1.8,2.4,3.2,2l35.1-7.9c1.5-0.3,2.4-1.8,2-3.2
	C313.9,195.9,312.5,195,311,195.3z"/>
<path class="st2" d="M351.9,163.1L271,181.3c-1.5,0.3-2.4,1.8-2,3.2c0.3,1.5,1.8,2.4,3.2,2l0,0l80.9-18.2c1.5-0.3,2.4-1.8,2-3.2
	C354.9,163.7,353.4,162.8,351.9,163.1z"/>
<path class="st2" d="M349.6,152.7l-80.9,18.2c-1.5,0.3-2.4,1.8-2,3.2c0.3,1.5,1.8,2.4,3.2,2l0,0l80.9-18.2c1.5-0.3,2.4-1.8,2-3.2
	C352.5,153.3,351.1,152.4,349.6,152.7z"/>
<path class="st2" d="M301.4,152.6l-35.1,7.9c-1.5,0.3-2.4,1.8-2,3.2c0.3,1.5,1.8,2.4,3.2,2l0,0l35.1-7.9c1.5-0.3,2.4-1.8,2-3.2
	C304.3,153.2,302.9,152.3,301.4,152.6z"/>
<path class="st5" d="M122.6,267.5c-1.6,0-2.9,1.3-2.9,2.9v299c0,1.6,1.3,2.9,2.9,2.9h374.9c1.6,0,2.9-1.3,2.9-2.9v-251
	c0-1.6-1.3-2.9-2.9-2.9H282.4c-2.2,0-4.3-0.8-5.9-2.3l-48.4-44c-1.2-1.1-2.9-1.8-4.6-1.8H122.6V267.5z"/>
<path class="st2" d="M570.1,189.2l-200.8-86.3c-11.2-4.8-24.2,0.4-29,11.6L235.1,359.2L471,460.6c1.9,0.8,4.1,1.1,6.1,0.8
	l104.5-243.1C586.4,207.1,581.3,194.1,570.1,189.2z"/>
<path class="st3" d="M486.4,172.8l-110-47.3c-10.2-4.4-22,0.3-26.4,10.5l-99,230l209.5,90.1l72-167.5
	C551.7,243.8,531.1,192,486.4,172.8z"/>
<path class="st4" d="M433.6,420.3L295.5,361c-2.5-1.1-5.4,0.1-6.4,2.6c-1.1,2.5,0.1,5.4,2.6,6.4l138.1,59.4c2.5,1.1,5.4-0.1,6.4-2.6
	C437.3,424.3,436.1,421.4,433.6,420.3L433.6,420.3z"/>
<path class="st4" d="M441.3,402.5l-138.1-59.4c-2.5-1.1-5.4,0.1-6.4,2.6c-1.1,2.5,0.1,5.4,2.6,6.4l138.1,59.4
	c2.5,1.1,5.4-0.1,6.5-2.6C444.9,406.5,443.8,403.6,441.3,402.5L441.3,402.5L441.3,402.5z"/>
<path class="st4" d="M370.7,351.1l-59.9-25.7c-2.5-1.1-5.4,0.1-6.4,2.6c-1.1,2.5,0.1,5.4,2.6,6.4l0,0l59.9,25.7
	c2.5,1.1,5.4-0.1,6.4-2.6C374.3,355.1,373.2,352.2,370.7,351.1L370.7,351.1L370.7,351.1z"/>
<path class="st4" d="M464.9,347.5l-138.1-59.4c-2.5-1.1-5.4,0.1-6.4,2.6s0.1,5.4,2.6,6.4l138.1,59.4c2.5,1.1,5.4-0.1,6.4-2.6
	C468.6,351.4,467.4,348.5,464.9,347.5L464.9,347.5L464.9,347.5z"/>
<path class="st4" d="M472.6,329.7l-138.1-59.4c-2.5-1.1-5.4,0.1-6.4,2.6c-1.1,2.5,0.1,5.4,2.6,6.4l0,0l138.1,59.4
	c2.5,1.1,5.4-0.1,6.4-2.5C476.2,333.6,475.1,330.7,472.6,329.7L472.6,329.7L472.6,329.7z"/>
<path class="st4" d="M402,278.2l-59.9-25.7c-2.5-1.1-5.4,0.1-6.4,2.6c-1.1,2.5,0.1,5.4,2.6,6.4l59.9,25.7c2.5,1.1,5.4-0.1,6.4-2.6
	C405.6,282.2,404.5,279.3,402,278.2L402,278.2z"/>
<path class="st6" d="M496.3,274.6l-138.1-59.4c-2.5-1.1-5.4,0.1-6.4,2.6c-1.1,2.5,0.1,5.4,2.6,6.4l138.1,59.4
	c2.5,1.1,5.4-0.1,6.4-2.6S498.8,275.7,496.3,274.6L496.3,274.6z"/>
<path class="st6" d="M503.9,256.8l-138.1-59.4c-2.5-1.1-5.4,0.1-6.4,2.6c-1.1,2.5,0.1,5.4,2.6,6.4l138.1,59.4
	c2.5,1.1,5.4-0.1,6.5-2.5C507.6,260.8,506.4,257.9,503.9,256.8L503.9,256.8z"/>
<path class="st6" d="M433.3,205.3l-59.9-25.7c-2.5-1.1-5.4,0.1-6.4,2.6c-1.1,2.5,0.1,5.4,2.6,6.4l59.9,25.7c2.5,1.1,5.4-0.1,6.4-2.6
	C437,209.3,435.8,206.4,433.3,205.3L433.3,205.3L433.3,205.3z"/>
<path class="st2" d="M284.3,278.1l-117.6,26.5c-6.6,1.5-10.7,8-9.2,14.6l32.3,143.4L328,431.5c1.1-0.3,2.2-0.8,3-1.7l-32-142.4
	C297.4,280.8,290.8,276.7,284.3,278.1z"/>
<path class="st3" d="M241.5,297.9L177,312.4c-6,1.4-9.7,7.3-8.4,13.3L199,460.4l122.7-27.6l-22.1-98.2
	C293.8,308.5,267.8,292,241.5,297.9z"/>
<path class="st4" d="M298.2,425.5l-80.9,18.2c-1.5,0.3-2.4,1.8-2.1,3.2c0.3,1.5,1.8,2.4,3.2,2.1l0,0l80.9-18.2
	c1.5-0.3,2.4-1.8,2.1-3.2C301.1,426.1,299.6,425.2,298.2,425.5L298.2,425.5L298.2,425.5z"/>
<path class="st4" d="M295.8,415.1l-80.9,18.2c-1.5,0.3-2.4,1.8-2,3.2c0.3,1.5,1.8,2.4,3.2,2l80.9-18.2c1.5-0.3,2.4-1.8,2.1-3.2
	C298.7,415.7,297.3,414.8,295.8,415.1L295.8,415.1L295.8,415.1z"/>
<path class="st4" d="M247.6,415l-35.1,7.9c-1.5,0.3-2.4,1.8-2,3.2c0.3,1.5,1.8,2.4,3.2,2l35.1-7.9c1.5-0.3,2.4-1.8,2.1-3.2
	C250.5,415.6,249.1,414.7,247.6,415L247.6,415z"/>
<path class="st4" d="M288.6,382.8l-81,18.2c-1.5,0.3-2.4,1.8-2,3.2c0.3,1.5,1.8,2.4,3.2,2l80.9-18.2c1.5-0.3,2.4-1.8,2.1-3.2
	C291.5,383.4,290,382.5,288.6,382.8L288.6,382.8L288.6,382.8z"/>
<path class="st4" d="M286.2,372.4l-80.9,18.2c-1.5,0.3-2.4,1.8-2.1,3.2s1.8,2.4,3.2,2.1l0,0l80.9-18.2c1.5-0.3,2.4-1.8,2.1-3.2
	C289.1,373,287.7,372.1,286.2,372.4L286.2,372.4L286.2,372.4z"/>
<path class="st4" d="M238,372.3l-35.1,7.9c-1.5,0.3-2.4,1.8-2,3.2c0.3,1.5,1.8,2.4,3.2,2l35.1-7.9c1.5-0.3,2.4-1.8,2.1-3.2
	C240.9,372.9,239.5,372,238,372.3L238,372.3z"/>
<path class="st2" d="M278.9,340.1L198,358.3c-1.5,0.3-2.4,1.8-2,3.2c0.3,1.5,1.8,2.4,3.2,2l80.9-18.2c1.5-0.3,2.4-1.8,2-3.2
	C281.9,340.7,280.4,339.8,278.9,340.1z"/>
<path class="st2" d="M276.6,329.7l-80.9,18.2c-1.5,0.3-2.4,1.8-2,3.2c0.3,1.5,1.8,2.4,3.2,2l0,0l80.9-18.2c1.5-0.3,2.4-1.8,2-3.2
	C279.5,330.3,278.1,329.4,276.6,329.7z"/>
<path class="st2" d="M228.4,329.6l-35.1,7.9c-1.5,0.3-2.4,1.8-2,3.2c0.3,1.5,1.8,2.4,3.2,2l0,0l35.1-7.9c1.5-0.3,2.4-1.8,2-3.2
	C231.3,330.2,229.9,329.3,228.4,329.6z"/>
<path class="st5" d="M120.1,346c-1.6,0-2.9,1.3-2.9,2.9l0,0c0,0.1,0.1,222.8,0.1,222.8c0.2,1.5,1.4,2.6,2.9,2.6H523
	c1.5,0,2.7-1.1,2.9-2.6L551,349.2c0.1-0.8-0.2-1.6-0.7-2.3c-0.5-0.6-1.3-1-2.2-1h-428V346z"/>
<path class="st6" d="M148.6,358.3c-8.5,0-15.4,6.9-15.5,15.4l0.5,172.6c-0.1,8.6,6.8,15.6,15.4,15.6h0.1h255.7
	c60.7,0,111.8-45.6,118.5-105.9l9.1-80.5c1-8.5-5.2-16.2-13.7-17.1c-0.6-0.1-1.2-0.1-1.7-0.1L148.6,358.3L148.6,358.3z M540.4,358.3
	v-1l0,0V358.3z"/>
<path class="st4" d="M260.2,487.7h-99c-2.1,0-3.9-1.7-3.9-3.9s1.7-3.9,3.9-3.9h99C265.2,479.9,265.3,487.7,260.2,487.7z"/>
<path class="st4" d="M393.7,507.8H161.2c-2.1,0-3.9-1.7-3.9-3.9s1.7-3.9,3.9-3.9h232.5C398.6,500.1,398.7,507.9,393.7,507.8z"/>
</svg>
