<?xml version="1.0" encoding="utf-8"?>
<!-- Generator: Adobe Illustrator 25.0.0, SVG Export Plug-In . SVG Version: 6.00 Build 0)  -->
<svg version="1.1" id="Layer_1" xmlns="http://www.w3.org/2000/svg" xmlns:xlink="http://www.w3.org/1999/xlink" x="0px" y="0px"
	 viewBox="0 0 512 512" style="enable-background:new 0 0 512 512;" xml:space="preserve">
<style type="text/css">
	.st0{fill:#E6E8EE;}
	.st1{fill:#FDDB00;}
	.st2{fill:#010101;}
</style>
<g>
	<path d="M445.79,282.26c6.49,1.42,8.75,4.07,8.77,10.5c0.04,10.97,0.07,21.95-0.01,32.92c-0.07,10.73-7.5,18.11-18.25,18.23
		c-4.83,0.05-9.66,0.19-14.48-0.06c-2.78-0.15-3.36,0.73-3.35,3.39c0.13,17.56,0.07,35.11,0.07,52.67c0,19.75-0.29,39.5,0.12,59.26
		c0.22,10.87-3.69,18.3-14.17,21.84c-99.01,0-198,0-297.01,0c-10.46-3.56-14.28-10.94-14.19-21.84
		c0.33-37.01,0.08-74.04,0.21-111.06c0.01-3.38-0.75-4.52-4.24-4.27c-4.66,0.33-9.36,0.14-14.04,0.06
		c-10.22-0.16-17.7-7.57-17.79-17.78c-0.11-11.12-0.05-22.24-0.02-33.36c0.01-6.41,2.28-9.08,8.77-10.49c4-1.5,6.36,0.86,8.36,3.72
		c1.67,2.38,1.78,5.21,1.8,8.02c0.02,8.49-0.05,16.99,0.04,25.48c0.05,4.92,0.49,5.44,5.18,5.44c11.66,0,10.47,1.06,10.49-10.24
		c0.04-39.83,0.01-79.68,0.01-119.51c0-8.08-0.01-8.08-7.86-8.08c-7.82,0-7.82,0-7.83,7.66c-0.01,7.9,0.02,15.82-0.02,23.72
		c-0.01,2.67-0.21,5.34-1.78,7.59c-2.01,2.85-4.36,5.24-8.36,3.72c-6.49-1.43-8.75-4.09-8.77-10.5
		c-0.04-10.98-0.06-21.96,0.01-32.94c0.07-10.75,7.49-18.1,18.27-18.2c4.69-0.05,9.38-0.23,14.04,0.07
		c3.18,0.21,3.77-0.87,3.76-3.86c-0.11-37.61-0.07-75.24-0.07-112.85c0-13.68,6.76-20.44,20.44-20.44c33.52,0,67.03-0.01,100.56,0
		c6.88,0,9.48,2.11,10.94,8.77c0.81,4.13-0.83,7.16-4.84,9.02c-2.76,1.28-5.71,1.17-8.63,1.17c-30.45,0.01-60.9,0-91.34,0.01
		c-1.61,0-3.22,0-4.83,0.08c-2.13,0.11-3.18,1.19-3.25,3.31c-0.04,1.02-0.07,2.04-0.07,3.08c0,34.55,0,69.1,0,103.65
		c0,0.73,0.06,1.47,0.01,2.2c-0.23,3.23,1.34,4.42,4.45,4.42c9.51-0.04,19.02-0.04,28.55-0.01c7.18,0.02,14.35-0.19,21.51,0.08
		c6.86,0.26,10.03,3.24,11.13,10.01c-0.99,7.05-4.34,10.12-11.8,10.22c-15.21,0.19-30.41,0.05-45.62,0.07
		c-8.23,0.01-8.23,0.01-8.23,8.11c0,40.65,0,81.32,0,121.98c0,0.88-0.01,1.75,0.01,2.63c0.13,4.58,0.48,5.03,5.08,5.06
		c13.75,0.08,27.49,0.02,41.24,0.04c2.92,0,5.86-0.12,8.77,0.09c6.46,0.49,9.57,3.5,10.56,10.11c-1.07,7.02-4.4,10.01-11.93,10.11
		c-14.2,0.19-28.41,0.05-42.6,0.06c-1.32,0-2.63,0-3.96,0c-7.09,0.04-7.15,0.07-7.15,7.03c-0.01,34.11-0.01,68.23,0,102.34
		c0,7.27,0.04,7.3,7.34,7.3c85.36,0.01,170.71,0,256.07,0c6.29,0,12.59-0.08,18.88,0.02c3.59,0.06,4.87-1.47,4.87-4.99
		c-0.05-35.58-0.01-71.16-0.06-106.73c-0.01-4.45-0.53-4.92-5.21-4.94c-16.1-0.09-32.21,0.08-48.31-0.08
		c-7.61-0.08-10.89-2.95-12.08-9.97c0.94-7.19,4.38-10.23,12.15-10.31c14.77-0.15,29.55-0.04,44.31-0.05c1.47,0,2.94-0.09,4.38,0
		c3.61,0.23,4.84-1.44,4.84-4.97c-0.05-42.71-0.05-85.42,0-128.12c0-3.72-1.63-4.77-5.05-4.76c-14.77,0.07-29.55,0.04-44.32,0.02
		c-1.9,0-3.8,0.06-5.71-0.08c-6.49-0.49-9.58-3.43-10.64-10.05c1.02-7.03,4.37-10.08,11.86-10.17c15.22-0.19,30.44-0.05,45.66-0.06
		c8.14-0.01,8.14-0.01,8.14-8.21c0-33.81,0-67.62,0-101.43c0-6.98-0.08-7.07-7.13-7.07c-30.14-0.01-60.29,0-90.45-0.01
		c-1.9,0-3.8,0.05-5.71-0.08c-8.22-0.55-11.29-4.6-9.64-12.74c2.03-4.57,5.57-6.22,10.51-6.21c34.24,0.11,68.49,0.04,102.73,0.07
		c11.3,0.01,18.64,7.36,18.65,18.71c0.04,38.05,0.06,76.1-0.06,114.14c-0.01,3.32,0.66,4.57,4.22,4.31
		c4.8-0.34,9.65-0.16,14.48-0.06c9.72,0.22,17.23,7.6,17.36,17.31c0.16,11.56,0.11,23.12,0.02,34.68c-0.04,5.6-2.58,8.27-8.75,9.63
		c-4,1.51-6.36-0.86-8.36-3.72c-1.67-2.38-1.78-5.21-1.8-8.02c-0.02-8.49,0.05-16.99-0.04-25.48c-0.05-4.92-0.49-5.44-5.18-5.44
		c-11.66,0-10.47-1.06-10.49,10.24c-0.04,39.83-0.01,79.68-0.01,119.51c0,8.08,0.01,8.08,7.86,8.08c7.82,0,7.82,0,7.83-7.66
		c0.01-7.9-0.02-15.82,0.02-23.72c0.01-2.67,0.21-5.34,1.78-7.59C439.42,283.12,441.79,280.74,445.79,282.26z"/>
	<path class="st0" d="M177.02,176.92c-1.47-6.66-4.06-8.77-10.94-8.77c-17.12-0.01-34.25-0.09-51.38,0.07
		c-3.15,0.04-3.79-0.85-3.78-3.86c0.11-37.33,0.12-74.66,0-111.98c-0.01-3.09,0.75-3.83,3.83-3.82c33.23,0.12,66.45,0.08,99.69,0.07
		c6.86,0,9.48-2.15,10.93-8.8c7.23,0,14.47,0,21.7,0c1.27,0.7,1.5,2.09,2.09,3.24c1.49,2.88,3.89,4.39,7.05,4.3
		c2.96-0.08,5.23-1.57,6.61-4.3c0.58-1.14,0.82-2.52,2.09-3.24c5.67,0,11.34-0.14,17,0.08c2.38,0.09,3.79-0.7,4.74-2.7
		c-0.31,8.41,2.57,11.41,11.02,11.41c32.92,0.01,65.84,0.09,98.76-0.11c4.04-0.02,4.64,1.15,4.63,4.81
		c-0.14,36.87-0.13,73.75,0,110.62c0.01,3.42-0.82,4.31-4.26,4.27c-16.97-0.19-33.95-0.09-50.92-0.08
		c-6.88,0.01-9.49,2.13-10.93,8.77c-1.66,1.61-3.78,1.42-5.8,1.42c-48.77,0.04-97.54,0.04-146.3,0
		C180.8,178.34,178.68,178.53,177.02,176.92z"/>
	<path class="st1" d="M66.17,229.79c6.67-1.48,8.77-4.07,8.8-10.96c0.02-9.66,0.13-19.33-0.06-28.99c-0.06-3.06,0.41-4.6,3.96-4.18
		c4.73,0.56,11.14-2.02,13.83,1.01c2.35,2.64,0.72,8.9,0.72,13.56c0.02,40.56-0.05,81.12,0.11,121.68c0.01,3.71-0.94,4.85-4.58,4.47
		c-3.18-0.33-6.45-0.27-9.65-0.01c-3.28,0.27-4.52-0.55-4.42-4.19c0.29-9.65,0.12-19.33,0.09-28.99c-0.01-6.88-2.13-9.49-8.8-10.94
		C66.17,264.76,66.17,247.27,66.17,229.79z"/>
	<path class="st1" d="M445.79,282.26c-6.66,1.46-8.77,4.06-8.8,10.94c-0.02,9.66-0.12,19.33,0.06,28.99
		c0.06,3.05-0.38,4.62-3.95,4.19c-4.73-0.56-11.14,2.01-13.83-1c-2.36-2.64-0.73-8.9-0.73-13.56c-0.02-40.56,0.05-81.12-0.11-121.68
		c-0.01-3.7,0.93-4.87,4.57-4.47c3.04,0.33,6.17,0.31,9.21,0c3.68-0.36,5.04,0.53,4.89,4.63c-0.38,9.5-0.13,19.04-0.12,28.55
		c0.01,6.87,2.13,9.48,8.8,10.94C445.79,247.27,445.79,264.76,445.79,282.26z"/>
	<path class="st2" d="M264.9,39.83c-1.29,5.93-4.39,8.9-9.14,8.77c-4.58-0.12-7.46-3.02-8.7-8.77c1.26-5.78,4.09-8.63,8.7-8.75
		C260.53,30.95,263.59,33.89,264.9,39.83z"/>
	<path class="st1" d="M177.02,176.92c52.63,0,105.28,0,157.91,0c1.46,6.65,4.07,8.78,10.93,8.8c17.12,0.02,34.23,0.09,51.35-0.07
		c3.14-0.04,3.83,0.86,3.82,3.89c-0.11,44.33-0.11,88.66,0,132.99c0.01,3.04-0.7,3.91-3.83,3.89c-17.11-0.16-34.23-0.09-51.35-0.07
		c-6.87,0.01-9.48,2.14-10.93,8.8c-1.66,1.6-3.78,1.41-5.81,1.41c-48.77,0.04-97.53,0.04-146.3,0c-2.02,0-4.15,0.19-5.81-1.41
		c-1.47-6.66-4.07-8.78-10.93-8.78c-17.11-0.01-34.23-0.09-51.34,0.07c-3.12,0.04-3.83-0.86-3.82-3.89
		c0.11-44.33,0.11-88.66,0-132.98c-0.01-3.03,0.68-3.92,3.82-3.89c17.11,0.16,34.23,0.09,51.34,0.07
		C172.94,185.71,175.54,183.58,177.02,176.92z"/>
	<path class="st0" d="M177.02,335.11c52.63,0,105.28,0,157.91,0c1.46,6.63,4.07,8.77,10.94,8.77c17.13,0.01,34.25,0.09,51.39-0.08
		c3.16-0.04,3.78,0.88,3.77,3.88c-0.11,37.33-0.12,74.68,0.01,112.01c0.01,3.14-0.83,3.78-3.86,3.78
		c-94.13-0.08-188.27-0.08-282.41,0c-3.02,0-3.88-0.63-3.86-3.78c0.12-37.33,0.12-74.68,0.01-112.01c-0.01-2.99,0.6-3.91,3.77-3.89
		c17.12,0.18,34.25,0.09,51.39,0.08C172.95,343.89,175.55,341.76,177.02,335.11z"/>
	<path d="M255.98,98.72c-35.42,0-70.85,0-106.26,0c-1.47,0-2.94,0.09-4.39-0.07c-4.67-0.52-8.07-4.38-7.95-8.94
		c0.11-4.38,3.45-8,7.94-8.5c1.3-0.14,2.63-0.07,3.95-0.07c71.14,0,142.27,0,213.41,0c1.32,0,2.64-0.08,3.95,0.07
		c4.49,0.49,7.84,4.12,7.95,8.49c0.12,4.54-3.29,8.42-7.95,8.94c-1.44,0.16-2.92,0.07-4.39,0.07
		C326.82,98.72,291.4,98.72,255.98,98.72z"/>
	<path d="M256.41,118.05c21.22,0,42.43,0.02,63.65-0.02c3.04-0.01,5.86,0.39,8.03,2.7c2.38,2.54,3.24,5.5,2.06,8.88
		c-1.17,3.34-3.59,5.25-7.01,5.9c-1.14,0.21-2.34,0.12-3.5,0.12c-42.43,0-84.87,0-127.3,0c-0.73,0-1.47,0.02-2.2-0.01
		c-5.24-0.31-8.95-4.09-8.83-8.98c0.12-4.72,3.75-8.38,8.81-8.53c5.41-0.15,10.83-0.05,16.24-0.05
		C223.04,118.05,239.73,118.05,256.41,118.05z"/>
	<path d="M138.96,256.07c-0.02-21.92,17.72-39.66,39.62-39.59c21.6,0.07,39.36,17.87,39.41,39.48c0.05,21.75-17.94,39.67-39.74,39.6
		C156.59,295.49,138.99,277.8,138.96,256.07z"/>
	<path d="M339.75,272.24c0,5.65,0.11,9.86-0.02,14.08c-0.18,5.52-3.61,9.12-8.54,9.22c-4.85,0.09-8.84-3.5-8.89-8.92
		c-0.18-20.34-0.18-40.67-0.01-61.01c0.05-5.88,3.68-9.16,9.58-9.09c7,0.09,14.06-0.85,21,0.62c10.55,2.23,18.48,10.42,19.9,20.28
		c1.53,10.6-3.29,20.32-13.2,25.48c-3.1,1.61-2.47,2.52-0.63,4.5c3.86,4.19,7.6,8.51,11.3,12.85c3.69,4.32,3.64,9.57,0,12.95
		c-3.85,3.56-9.07,3.11-13.13-1.37C351.54,285.69,346.1,279.42,339.75,272.24z"/>
	<path d="M236.36,252.86c0.35-12.27,7.16-24.16,20.69-31.52c13.21-7.19,26.68-6.63,39.62,1.17c5.93,3.57,6.79,10.65,1.94,14.64
		c-3.86,3.18-7.69,2.28-11.75,0c-9.84-5.51-20.67-3.59-27.78,4.66c-5.67,6.56-6.81,16.48-2.79,24.24
		c4.13,7.99,13.01,12.82,21.78,11.79c3.9-0.46,7.18-2.14,9.98-4.97c4.43-4.47,9.31-4.79,13.14-1.13c3.9,3.72,3.61,8.98-0.76,13.58
		c-13.65,14.35-38.35,13.48-53.04-1.94C240.1,275.79,236.34,266.67,236.36,252.86z"/>
	<path d="M255.93,413.32c35.57,0,71.14,0,106.7,0c1.47,0,2.95-0.09,4.38,0.12c4.25,0.6,7.43,4.2,7.56,8.4
		c0.14,4.36-3.05,8.26-7.47,8.94c-1.43,0.22-2.92,0.13-4.38,0.13c-71.14,0-142.27,0-213.41,0c-1.32,0-2.64,0.08-3.95-0.06
		c-4.67-0.5-8.09-4.35-8-8.89c0.08-4.38,3.41-8.03,7.89-8.54c1.44-0.16,2.92-0.07,4.39-0.07
		C185.08,413.32,220.51,413.32,255.93,413.32z"/>
	<path d="M255.67,393.99c-20.93,0-41.85,0-62.77,0c-1.32,0-2.65,0.08-3.95-0.11c-4.45-0.62-7.68-4.39-7.64-8.77
		c0.05-4.38,3.35-8.07,7.81-8.62c1.15-0.14,2.34-0.08,3.51-0.08c42.29,0,84.57,0,126.86,0c1.02,0,2.06-0.05,3.06,0.06
		c4.67,0.48,8.13,4.27,8.08,8.82c-0.05,4.54-3.52,8.23-8.24,8.65c-1.46,0.13-2.92,0.05-4.39,0.05
		C297.23,393.99,276.45,393.99,255.67,393.99z"/>
	<path class="st1" d="M156.54,255.98c0.01-12.22,9.82-21.98,22.02-21.91c11.88,0.06,21.72,9.86,21.87,21.77
		c0.14,11.98-9.89,22.11-21.94,22.15C166.31,278.01,156.53,268.2,156.54,255.98z"/>
	<path class="st1" d="M339.95,240.84c1.2-2.06-3.12-7.1,3.8-6.87c7.82,0.27,11.72,2.45,11.64,7.39c-0.07,4.54-3.57,6.98-10.13,7.03
		C340.02,248.44,340.02,248.44,339.95,240.84z"/>
</g>
</svg>
